g buttonLid(Clone) 0
v 0.06127724 -0.01624085 0.1401517
v 0.06045553 -0.02549685 0.1393522
v -0.05812479 -0.02549685 0.1393522
v -0.05894652 -0.01624085 0.1401517
v -0.06259277 0.04248711 0.1355566
v 0.06494415 0.04248711 0.1355566
v -0.04960196 0.05129857 0.1206881
v 0.05484532 0.05129857 0.1206881
v -0.06296179 -0.02549404 0.1354427
v -0.0635944 -0.01624085 0.1365032
v -0.05954762 -0.02549491 0.01681067
v -0.06010791 -0.01623651 0.0173408
v -0.06725947 0.04238834 0.1311046
v -0.0614472 0.008102372 0.01836001
v -0.06357567 0.0392287 0.02503505
v -0.05124699 0.05129857 0.04094931
v -0.05422929 0.05129857 0.1163099
v 0.05947264 0.05129857 0.1163099
v 0.06959019 0.04248712 0.1310843
v 0.06590641 0.0424871 0.02501338
v 0.05633355 0.05129857 0.04094931
v 0.06377793 0.009360807 0.01835167
v 0.06243865 -0.0162365 0.01734084
v 0.06592512 -0.01624085 0.1365032
v 0.06187835 -0.0254949 0.01681069
v 0.06529252 -0.02549404 0.1354427
v 0.05133355 0.05353844 0.04530929
v 0.05418814 0.05353843 0.1142392
v 0.0526564 0.05353846 0.1156885
v -0.04741305 0.05353846 0.1156885
v -0.04894479 0.05353843 0.1142392
v -0.04624699 0.05353843 0.04302047
v -0.0468688 0.05129857 0.0365711
v -0.04479774 0.05353845 0.0415711
v 0.06191242 -0.02864068 0.1319325
v 0.05709051 -0.02864068 0.1368952
v 0.04988428 0.05353844 0.04386003
v 0.002249769 0.05353845 0.07978007
v 0.05195535 0.05129857 0.0365711
v 0.06152182 0.04237341 0.02052043
v 0.05938514 0.009314233 0.01355547
v -0.05915025 0.03924404 0.02052043
v -0.05703658 0.008105642 0.01355547
v -0.05570662 -0.01624085 0.01235383
v -0.05485554 -0.02552106 0.01226483
v -0.0563249 -0.02864068 0.01994662
v -0.05179342 -0.02864069 0.01485508
v -0.05958168 -0.02864068 0.1319325
v -0.05475978 -0.02864068 0.1368952
v -0.03812443 -0.02552105 0.01226483
v -0.03812443 -0.02864069 0.01485508
v -0.03812443 -0.01624085 0.01235383
v -0.03674766 0.009797579 0.0143796
v -0.03690844 0.006820383 0.01812517
v -0.03812443 -0.01588965 0.01596692
v -0.03812443 -0.02531991 0.01924654
v -0.03812443 -0.02864068 0.01802821
v 0.03885779 0.006828935 0.01754397
v 0.03947183 0.009797579 0.0143796
v 0.05804071 -0.01624085 0.01235383
v 0.05718713 -0.02552105 0.01226482
v 0.03971012 -0.01624085 0.01235383
v 0.03971012 -0.02552105 0.01226482
v 0.05865564 -0.02864068 0.01994662
v 0.05412415 -0.02864069 0.01485508
v 0.03971012 -0.02864069 0.01485508
v 0.03971012 -0.02531991 0.0195892
v 0.03971012 -0.02864068 0.01802821
v 0.03971012 -0.01588965 0.01596692
v 0.05277788 -0.02532961 0.1315019
v 0.05981586 -0.0133231 0.1362355
v -0.05484128 -0.0133231 0.1362355
v -0.05067602 -0.02532961 0.1315019
v 0.06082837 0.03736758 0.1307769
v -0.05849751 0.03736758 0.1307769
v 0.0507885 0.04883434 0.1164506
v -0.04580054 0.04883434 0.1164506
v -0.05159971 -0.02864068 0.1338633
v 0.05393045 -0.02864068 0.1338633
v 0.05709051 -0.02864068 0.1368952
v -0.05475978 -0.02864068 0.1368952
v -0.05616817 -0.02864068 0.1284965
v -0.05958168 -0.02864068 0.1319325
v -0.05306197 -0.02864068 0.02374683
v -0.0563249 -0.02864068 0.01994662
v -0.05411436 -0.02532929 0.1281253
v -0.05113874 -0.02532026 0.02462845
v -0.05943403 -0.01332311 0.131721
v -0.05291688 -0.01332311 0.02197892
v -0.05587074 0.007101766 0.02337567
v -0.063164 0.03736758 0.1263067
v -0.05970069 0.03736757 0.02931094
v -0.05042787 0.04883434 0.1120728
v -0.04765023 0.04883433 0.04472583
v 0.06191242 -0.02864068 0.1319325
v 0.05849892 -0.02864068 0.1284965
v 0.05865564 -0.02864068 0.01994662
v 0.0553927 -0.02864068 0.02374683
v 0.05346948 -0.02532026 0.02462988
v 0.0564451 -0.02532928 0.1281335
v 0.05774914 -0.01332311 0.02197892
v 0.06440861 -0.01332311 0.131721
v 0.06549472 0.03736758 0.1263067
v 0.05961377 0.007101766 0.02337567
v 0.06203143 0.03736757 0.02931094
v 0.05249514 0.04883433 0.04701474
v 0.05541583 0.04883434 0.1120728
v 0.05412415 -0.02864069 0.01485508
v 0.05123129 -0.02864068 0.01802821
v 0.05214313 0.007101774 0.01706739
v 0.05059221 0.03736757 0.02486758
v 0.04811694 0.04883434 0.04034764
v 0.0531651 -0.01588965 0.01596692
v -0.04327204 0.04883434 0.04034764
v -0.05530912 0.03736757 0.02486758
v -0.05137051 0.007101774 0.01706739
v -0.04833285 -0.01588965 0.01596692
v -0.04824704 -0.02531991 0.0195892
v -0.04890055 -0.02864068 0.01802821
v -0.05179342 -0.02864069 0.01485508
v -0.03812443 -0.02864069 0.01485508
v -0.03812443 -0.02864068 0.01802821
v -0.03812443 -0.02531991 0.01924654
v -0.03812443 -0.01588965 0.01596692
v -0.03690844 0.006820383 0.01812517
v 0.03885779 0.006828935 0.01754397
v 0.0388578 0.006828935 0.01754397
v 0.03971012 -0.01588965 0.01596692
v 0.05164641 -0.02531991 0.0195892
v 0.03971012 -0.02531991 0.0195892
v 0.03971012 -0.02864068 0.01802821
v 0.03971012 -0.02864069 0.01485508
v 0.002366493 0.04883432 0.07906219
vt 0.5901357 0.8973534
vt 0.5835787 0.9420764
vt 0.9135444 0.9420763
vt 0.9072211 0.8973528
vt 0.8469065 0.7620087
vt 0.6260017 0.7734739
vt 0.8299663 0.7181033
vt 0.6447809 0.7181032
vt 0.9666193 0.83606
vt 0.9309264 0.83606
vt 0.9666187 0.1949539
vt 0.930926 0.2407302
vt 0.8762331 0.7345359
vt 0.9051079 0.3087315
vt 0.8762336 0.3746522
vt 0.8521518 0.3980482
vt 0.8521518 0.6729279
vt 0.6315249 0.6957242
vt 0.6074648 0.7283773
vt 0.6074648 0.3746519
vt 0.6351845 0.3993635
vt 0.5832164 0.3106593
vt 0.5544867 0.2376949
vt 0.5544867 0.83606
vt 0.5294305 0.180975
vt 0.5294304 0.8360597
vt 0.6446418 0.4278381
vt 0.6446418 0.6662081
vt 0.6479598 0.6776557
vt 0.8264152 0.6776555
vt 0.8381042 0.6645899
vt 0.8381041 0.4209142
vt 0.8404834 0.373941
vt 0.8338896 0.4116418
vt 0.5131989 0.8456401
vt 0.5867177 0.9879439
vt 0.6558871 0.4153558
vt 0.7413731 0.546214
vt 0.6485296 0.372059
vt 0.6254847 0.3342148
vt 0.6163225 0.2616672
vt 0.8527904 0.3367098
vt 0.882928 0.2559634
vt 0.9056451 0.1596549
vt 0.9150431 0.09976387
vt 0.9901407 0.1694633
vt 0.9236898 0.02530742
vt 0.9901407 0.8456396
vt 0.910341 0.9879439
vt 0.865608 0.08100963
vt 0.8656076 0.02530777
vt 0.8656079 0.1368501
vt 0.8197868 0.2502615
vt 0.813583 0.1765535
vt 0.8310618 0.1446466
vt 0.8310617 0.08100975
vt 0.8310618 0.02530742
vt 0.6816244 0.1757339
vt 0.667624 0.2502621
vt 0.6085718 0.1568098
vt 0.5826492 0.09976411
vt 0.6410825 0.1397913
vt 0.6410828 0.08100975
vt 0.5131988 0.1676861
vt 0.5650424 0.02530777
vt 0.6410824 0.02530777
vt 0.6702322 0.08100975
vt 0.6702321 0.02530777
vt 0.6702321 0.1452118
vt 0.4517319 0.9230937
vt 0.4352618 0.8733575
vt 0.08128653 0.8708851
vt 0.05712999 0.9230937
vt 0.3678638 0.7394459
vt 0.1293468 0.7374675
vt 0.3463056 0.6695256
vt 0.1631466 0.6695257
vt 0.04859608 0.9468204
vt 0.4600316 0.9468205
vt 0.4726505 0.981635
vt 0.0358164 0.981635
vt 0.029255 0.904004
vt 0.01363467 0.9292815
vt 0.02910216 0.1517031
vt 0.01363464 0.1383784
vt 0.04141986 0.893651
vt 0.04049698 0.1626471
vt 0.06385659 0.8482857
vt 0.06006402 0.1917966
vt 0.08310159 0.237533
vt 0.1067374 0.7268023
vt 0.1056203 0.3014803
vt 0.1430343 0.6577237
vt 0.1430342 0.3784654
vt 0.4921708 0.9441166
vt 0.4814702 0.9164926
vt 0.4913634 0.06408706
vt 0.4834139 0.09361073
vt 0.4731671 0.1321073
vt 0.4734801 0.8975924
vt 0.4430433 0.1952411
vt 0.4499366 0.8469545
vt 0.3850193 0.7209184
vt 0.4131747 0.2458538
vt 0.3839585 0.3169229
vt 0.3611161 0.4172799
vt 0.3611161 0.6435719
vt 0.4754755 0.04366171
vt 0.4683328 0.07738355
vt 0.4051548 0.2085679
vt 0.3744343 0.251788
vt 0.3457989 0.3577942
vt 0.4330667 0.1629304
vt 0.1618702 0.3577943
vt 0.1379826 0.2506071
vt 0.1205042 0.2085845
vt 0.06844303 0.1244029
vt 0.037852 0.09010902
vt 0.02696243 0.07996437
vt 0.01400591 0.06789452
vt 0.03148147 0.01875341
vt 0.04166877 0.02594569
vt 0.0526799 0.03280562
vt 0.08642849 0.06658816
vt 0.1687922 0.1514814
vt 0.3566917 0.1512998
vt 0.3566917 0.1512998
vt 0.3909352 0.103984
vt 0.4605632 0.1070354
vt 0.4092515 0.06047636
vt 0.4190581 0.03030577
vt 0.4250391 0.004447937
vt 0.2540879 0.51366
vn 0.02902769 0.05628261 0.9979928
vn 0.03454146 -0.2040705 0.9783466
vn -0.0345414 -0.2040706 0.9783466
vn -0.02897806 0.05628406 0.9979942
vn -0.03572609 0.2093237 0.9771936
vn 0.03521474 0.2198243 0.9749036
vn -0.01351995 0.8723255 0.4887384
vn 0.01470373 0.8720415 0.4892108
vn -0.9751579 -0.2211907 0.01190987
vn -0.9981365 -0.05905374 0.0153675
vn -0.9684256 -0.2395833 -0.06893318
vn -0.996892 -0.06074568 -0.05016285
vn -0.9991003 0.04168241 0.007821552
vn -0.9969747 -0.05855411 -0.05111586
vn -0.9978809 0.03640961 -0.05392486
vn -0.5962536 0.8010453 -0.05299177
vn -0.5949715 0.8035902 -0.01586199
vn 0.6165336 0.7873178 -0.004123271
vn 0.9998634 0.0147596 0.00744513
vn 0.9985191 0.01235588 -0.05297988
vn 0.6206585 0.7830073 -0.04102047
vn 0.9970143 -0.05688286 -0.05221979
vn 0.9969401 -0.0592543 -0.05098505
vn 0.9982454 -0.05765675 0.01348501
vn 0.968425 -0.2395897 -0.068918
vn 0.9751579 -0.2211903 0.01190988
vn 0.01992264 0.9998006 -0.001382828
vn 0.0187722 0.9998239 2.968311E-05
vn 0.0006667267 0.9996905 0.02486974
vn -0.0006667265 0.9996905 0.02486974
vn -0.01899597 0.9998196 6.994604E-05
vn -0.01773106 0.9998419 -0.001350134
vn -0.02720749 0.8586278 -0.5118771
vn -0.000415944 0.999715 -0.02386531
vn 0.5643299 -0.8255494 -6.407499E-05
vn 0.01565563 -0.7600895 0.6496297
vn 0.0009735783 0.9997599 -0.02189135
vn 0 1 1.701019E-08
vn 0.005196824 0.8619557 -0.5069569
vn 0.05168869 0.5054325 -0.8613166
vn 0.2205225 0.1071807 -0.9694752
vn -0.06920135 0.4939069 -0.8667567
vn -0.2206768 0.1104148 -0.9690771
vn -0.1869088 0.03659645 -0.9816953
vn -0.2197866 -0.2018288 -0.9544417
vn -0.5620413 -0.8265206 -0.03119828
vn -0.09505279 -0.8510804 -0.5163594
vn -0.5643302 -0.8255491 -6.407499E-05
vn -0.01565563 -0.7600898 0.6496295
vn 0.2672195 -0.1736012 -0.9478694
vn 0.2505873 -0.8276709 -0.5021623
vn 0.2167167 0.04294281 -0.9752896
vn 0.01070205 0.1255273 -0.9920325
vn 0.02793372 -0.287499 0.9573735
vn 0.3612592 0.01990029 0.9322529
vn 0.3813135 0.1434212 0.9132527
vn 0.3087784 -0.7973666 0.5185193
vn -0.01099095 -0.283406 0.9589371
vn -0.01567401 0.1295804 -0.9914449
vn 0.1861069 0.03596726 -0.9818709
vn 0.2128803 -0.1994314 -0.9565088
vn -0.2057681 0.04628026 -0.9775058
vn -0.2644825 -0.174454 -0.9484802
vn 0.5620406 -0.8265211 -0.03119689
vn 0.09206732 -0.8489323 -0.5204206
vn -0.2459378 -0.8299379 -0.5007172
vn -0.3094121 0.1634133 0.9367819
vn -0.2919517 -0.8000537 0.5240976
vn -0.3306461 0.05882731 0.9419196
vn -0.02657545 0.1875484 -0.9818958
vn -0.03697537 -0.03670096 -0.998642
vn 0.03404185 -0.03019794 -0.9989641
vn 0.03144799 0.1742208 -0.9842042
vn -0.03971196 -0.2499877 -0.9674343
vn 0.04258574 -0.2433704 -0.9689981
vn -0.003882476 -0.9927678 -0.1199879
vn 0.003635656 -0.992203 -0.1245797
vn 0.01448228 -0.9257281 -0.3779123
vn -0.01513085 -0.9291369 -0.3694261
vn 0.01565563 -0.7600895 0.6496297
vn -0.01565563 -0.7600898 0.6496295
vn 0.3906023 -0.9205576 -0.001879573
vn -0.5643302 -0.8255491 -6.407499E-05
vn 0.3783993 -0.9253429 0.02354818
vn -0.5620413 -0.8265206 -0.03119828
vn 0.9922183 0.1243869 0.005554084
vn 0.9928352 0.1007795 0.06419964
vn 0.9911423 0.1327623 -0.003339838
vn 0.9883208 0.1361223 0.06850366
vn 0.9927128 0.09947154 0.06801915
vn 0.9998628 -0.01643737 0.00202703
vn 0.9974741 -0.0114922 0.07009498
vn 0.1094259 -0.993995 -1.651049E-05
vn 0.1046628 -0.994481 0.007301509
vn 0.5643299 -0.8255494 -6.407499E-05
vn -0.390699 -0.9205158 -0.002212226
vn 0.5620406 -0.8265211 -0.03119689
vn -0.3797479 -0.9248368 0.02164578
vn -0.9640947 0.2591039 0.05819463
vn -0.95855 0.2849146 0.002341852
vn -0.9884313 0.1319474 0.07478961
vn -0.9916894 0.1286498 -0.001125768
vn -0.9992311 -0.03917549 0.001530036
vn -0.9951435 0.04348815 0.08830763
vn -0.9943858 -0.04052283 0.09774867
vn -0.1026859 -0.9946773 0.008525043
vn -0.1130929 -0.9935843 0.0004321039
vn 0.09206732 -0.8489323 -0.5204206
vn -0.09926017 -0.9229714 0.3718485
vn -0.2824647 -0.1378091 0.9493273
vn -0.05130426 -0.5057959 0.8611262
vn -0.007096003 -0.9942374 0.1069654
vn -0.2926894 0.08554739 0.9523731
vn 0.003866484 -0.9935236 0.1135601
vn 0.07395947 -0.478456 0.8749914
vn 0.3284208 -0.1014947 0.9390627
vn 0.2782788 0.07351073 0.9576831
vn 0.4510666 0.1179966 0.8846557
vn 0.1269515 -0.9353248 0.3302282
vn -0.09505279 -0.8510804 -0.5163594
vn 0.2505873 -0.8276709 -0.5021623
vn 0.3087784 -0.7973666 0.5185193
vn 0.3813135 0.1434212 0.9132527
vn 0.3612592 0.01990029 0.9322529
vn 0.02793372 -0.287499 0.9573735
vn -0.01099095 -0.283406 0.9589371
vn -0.01626691 -0.2132527 0.9768617
vn -0.3306461 0.05882731 0.9419196
vn -0.4016345 0.2229164 0.8882557
vn -0.3094121 0.1634133 0.9367819
vn -0.2919517 -0.8000537 0.5240976
vn -0.2459378 -0.8299379 -0.5007172
vn 0 -1 6.755364E-08
g buttonLid(Clone) 0_0
f 3/3/3 2/2/2 1/1/1
f 4/4/4 3/3/3 1/1/1
f 5/5/5 4/4/4 1/1/1
f 6/6/6 5/5/5 1/1/1
f 5/5/5 6/6/6 7/7/7
f 6/6/6 8/8/8 7/7/7
f 3/3/3 4/4/4 9/9/9
f 4/4/4 10/10/10 9/9/9
f 10/10/10 4/4/4 5/5/5
f 9/9/9 10/10/10 11/11/11
f 10/10/10 12/12/12 11/11/11
f 12/12/12 10/10/10 13/13/13
f 13/13/13 10/10/10 5/5/5
f 5/5/5 7/7/7 13/13/13
f 13/13/13 14/14/14 12/12/12
f 13/13/13 15/15/15 14/14/14
f 15/15/15 13/13/13 16/16/16
f 13/13/13 17/17/17 16/16/16
f 7/7/7 17/17/17 13/13/13
f 18/18/18 8/8/8 6/6/6
f 19/19/19 18/18/18 6/6/6
f 19/19/19 20/20/20 18/18/18
f 20/20/20 21/21/21 18/18/18
f 22/22/22 20/20/20 19/19/19
f 23/23/23 22/22/22 19/19/19
f 19/19/19 24/24/24 23/23/23
f 25/25/25 23/23/23 24/24/24
f 26/26/26 25/25/25 24/24/24
f 26/26/26 24/24/24 2/2/2
f 24/24/24 1/1/1 2/2/2
f 1/1/1 24/24/24 19/19/19
f 6/6/6 1/1/1 19/19/19
f 21/21/21 27/27/27 18/18/18
f 27/27/27 28/28/28 18/18/18
f 18/18/18 28/28/28 8/8/8
f 28/28/28 29/29/29 8/8/8
f 8/8/8 29/29/29 30/30/30
f 7/7/7 8/8/8 30/30/30
f 7/7/7 30/30/30 17/17/17
f 30/30/30 31/31/31 17/17/17
f 17/17/17 31/31/31 16/16/16
f 31/31/31 32/32/32 16/16/16
f 16/16/16 32/32/32 33/33/33
f 32/32/32 34/34/34 33/33/33
f 35/35/35 26/26/26 2/2/2
f 36/36/36 35/35/35 2/2/2
f 33/33/33 34/34/34 37/37/37
f 38/38/38 27/27/27 37/37/37
f 30/30/30 38/38/38 31/31/31
f 30/30/30 29/29/29 38/38/38
f 29/29/29 28/28/28 38/38/38
f 28/28/28 27/27/27 38/38/38
f 38/38/38 37/37/37 34/34/34
f 38/38/38 34/34/34 32/32/32
f 38/38/38 32/32/32 31/31/31
f 37/37/37 27/27/27 21/21/21
f 39/39/39 37/37/37 21/21/21
f 39/39/39 33/33/33 37/37/37
f 39/39/39 21/21/21 20/20/20
f 40/40/40 39/39/39 20/20/20
f 40/40/40 20/20/20 22/22/22
f 41/41/41 40/40/40 22/22/22
f 15/15/15 16/16/16 33/33/33
f 42/42/42 15/15/15 33/33/33
f 42/42/42 33/33/33 39/39/39
f 40/40/40 42/42/42 39/39/39
f 14/14/14 15/15/15 42/42/42
f 43/43/43 14/14/14 42/42/42
f 12/12/12 14/14/14 43/43/43
f 44/44/44 12/12/12 43/43/43
f 11/11/11 12/12/12 44/44/44
f 45/45/45 11/11/11 44/44/44
f 46/46/46 11/11/11 45/45/45
f 47/47/47 46/46/46 45/45/45
f 11/11/11 46/46/46 48/48/48
f 9/9/9 11/11/11 48/48/48
f 9/9/9 48/48/48 49/49/49
f 3/3/3 9/9/9 49/49/49
f 49/49/49 36/36/36 3/3/3
f 36/36/36 2/2/2 3/3/3
f 47/47/47 45/45/45 50/50/50
f 51/51/51 47/47/47 50/50/50
f 45/45/45 44/44/44 52/52/52
f 50/50/50 45/45/45 52/52/52
f 52/52/52 44/44/44 43/43/43
f 53/53/53 52/52/52 43/43/43
f 53/53/53 54/54/54 52/52/52
f 54/54/54 55/55/55 52/52/52
f 50/50/50 56/56/56 51/51/51
f 56/56/56 50/50/50 52/52/52
f 55/55/55 56/56/56 52/52/52
f 56/56/56 57/57/57 51/51/51
f 58/58/58 54/54/54 53/53/53
f 59/59/59 58/58/58 53/53/53
f 53/53/53 42/42/42 59/59/59
f 53/53/53 43/43/43 42/42/42
f 42/42/42 40/40/40 59/59/59
f 40/40/40 41/41/41 59/59/59
f 59/59/59 41/41/41 60/60/60
f 60/60/60 41/41/41 23/23/23
f 60/60/60 23/23/23 25/25/25
f 61/61/61 60/60/60 25/25/25
f 62/62/62 60/60/60 61/61/61
f 62/62/62 59/59/59 60/60/60
f 63/63/63 62/62/62 61/61/61
f 25/25/25 64/64/64 61/61/61
f 64/64/64 25/25/25 26/26/26
f 35/35/35 64/64/64 26/26/26
f 64/64/64 65/65/65 61/61/61
f 61/61/61 65/65/65 63/63/63
f 65/65/65 66/66/66 63/63/63
f 41/41/41 22/22/22 23/23/23
f 63/63/63 66/66/66 67/67/67
f 62/62/62 63/63/63 67/67/67
f 66/66/66 68/68/68 67/67/67
f 69/69/69 62/62/62 67/67/67
f 59/59/59 62/62/62 69/69/69
f 69/69/69 58/58/58 59/59/59
f 72/72/72 71/71/71 70/70/70
f 73/73/73 72/72/72 70/70/70
f 74/74/74 71/71/71 72/72/72
f 75/75/75 74/74/74 72/72/72
f 76/76/76 74/74/74 75/75/75
f 77/77/77 76/76/76 75/75/75
f 73/73/73 70/70/70 78/78/78
f 70/70/70 79/79/79 78/78/78
f 78/78/78 79/79/79 80/80/80
f 81/81/81 78/78/78 80/80/80
f 82/82/82 78/78/78 81/81/81
f 83/83/83 82/82/82 81/81/81
f 84/84/84 82/82/82 83/83/83
f 85/85/85 84/84/84 83/83/83
f 82/82/82 84/84/84 86/86/86
f 86/86/86 73/73/73 78/78/78
f 82/82/82 86/86/86 78/78/78
f 84/84/84 87/87/87 86/86/86
f 86/86/86 87/87/87 88/88/88
f 73/73/73 86/86/86 88/88/88
f 87/87/87 89/89/89 88/88/88
f 88/88/88 89/89/89 90/90/90
f 90/90/90 91/91/91 88/88/88
f 90/90/90 92/92/92 91/91/91
f 93/93/93 91/91/91 92/92/92
f 94/94/94 93/93/93 92/92/92
f 80/80/80 79/79/79 95/95/95
f 79/79/79 96/96/96 95/95/95
f 95/95/95 96/96/96 97/97/97
f 96/96/96 98/98/98 97/97/97
f 99/99/99 98/98/98 96/96/96
f 100/100/100 99/99/99 96/96/96
f 101/101/101 99/99/99 100/100/100
f 102/102/102 101/101/101 100/100/100
f 101/101/101 102/102/102 103/103/103
f 103/103/103 104/104/104 101/101/101
f 103/103/103 105/105/105 104/104/104
f 106/106/106 105/105/105 103/103/103
f 107/107/107 106/106/106 103/103/103
f 97/97/97 98/98/98 108/108/108
f 98/98/98 109/109/109 108/108/108
f 98/98/98 99/99/99 109/109/109
f 76/76/76 107/107/107 103/103/103
f 74/74/74 76/76/76 103/103/103
f 103/103/103 102/102/102 74/74/74
f 102/102/102 71/71/71 74/74/74
f 102/102/102 100/100/100 71/71/71
f 110/110/110 104/104/104 105/105/105
f 111/111/111 110/110/110 105/105/105
f 105/105/105 106/106/106 111/111/111
f 106/106/106 112/112/112 111/111/111
f 100/100/100 70/70/70 71/71/71
f 70/70/70 100/100/100 96/96/96
f 79/79/79 70/70/70 96/96/96
f 110/110/110 113/113/113 104/104/104
f 112/112/112 114/114/114 111/111/111
f 114/114/114 115/115/115 111/111/111
f 115/115/115 114/114/114 92/92/92
f 114/114/114 94/94/94 92/92/92
f 92/92/92 90/90/90 115/115/115
f 90/90/90 116/116/116 115/115/115
f 90/90/90 89/89/89 116/116/116
f 89/89/89 117/117/117 116/116/116
f 89/89/89 87/87/87 117/117/117
f 87/87/87 118/118/118 117/117/117
f 118/118/118 87/87/87 84/84/84
f 119/119/119 118/118/118 84/84/84
f 119/119/119 84/84/84 85/85/85
f 120/120/120 119/119/119 85/85/85
f 120/120/120 121/121/121 119/119/119
f 121/121/121 122/122/122 119/119/119
f 119/119/119 122/122/122 118/118/118
f 122/122/122 123/123/123 118/118/118
f 118/118/118 123/123/123 117/117/117
f 123/123/123 124/124/124 117/117/117
f 117/117/117 124/124/124 125/125/125
f 116/116/116 117/117/117 125/125/125
f 115/115/115 116/116/116 125/125/125
f 115/115/115 125/125/125 126/126/126
f 115/115/115 126/126/126 127/127/127
f 127/127/127 111/111/111 115/115/115
f 127/127/127 110/110/110 111/111/111
f 110/110/110 127/127/127 128/128/128
f 113/113/113 110/110/110 128/128/128
f 129/129/129 113/113/113 128/128/128
f 113/113/113 129/129/129 101/101/101
f 129/129/129 99/99/99 101/101/101
f 99/99/99 129/129/129 109/109/109
f 113/113/113 101/101/101 104/104/104
f 109/109/109 129/129/129 130/130/130
f 130/130/130 129/129/129 128/128/128
f 131/131/131 109/109/109 130/130/130
f 109/109/109 131/131/131 132/132/132
f 108/108/108 109/109/109 132/132/132
f 72/72/72 88/88/88 91/91/91
f 75/75/75 72/72/72 91/91/91
f 91/91/91 93/93/93 75/75/75
f 93/93/93 77/77/77 75/75/75
f 72/72/72 73/73/73 88/88/88
f 133/133/133 77/77/77 93/93/93
f 133/133/133 76/76/76 77/77/77
f 107/107/107 76/76/76 133/133/133
f 106/106/106 107/107/107 133/133/133
f 112/112/112 106/106/106 133/133/133
f 112/112/112 133/133/133 114/114/114
f 133/133/133 93/93/93 94/94/94
f 133/133/133 94/94/94 114/114/114
