g Button(Clone) 1
v 0.0311811 0.08825386 0.0109391
v 0.03281773 0.09728509 0.01040726
v 0.02510195 0.09728509 -0.004735613
v 0.02370985 0.08825387 -0.003724218
v 0.01308441 0.09728509 -0.01675315
v 0.01207304 0.08825387 -0.01536102
v -0.002058459 0.09728509 -0.0244688
v -0.00259018 0.08825387 -0.02283232
v -0.01884451 0.09728509 -0.02712751
v -0.01884451 0.08825387 -0.02540665
v -0.03563053 0.09728509 -0.02446878
v -0.03509877 0.08825387 -0.0228323
v -0.05077346 0.09728509 -0.01675315
v -0.04976204 0.08825387 -0.01536093
v -0.06279095 0.09728509 -0.004735613
v -0.06139877 0.08825387 -0.003724241
v -0.07050662 0.09728509 0.01040726
v -0.06887004 0.08825387 0.0109391
v -0.0731653 0.09728509 0.02719328
v -0.07144449 0.08825387 0.02719328
v -0.07050662 0.09728509 0.04397934
v -0.06887004 0.08825387 0.04344771
v -0.06279095 0.09728509 0.05912238
v -0.06139877 0.08825387 0.05811081
v -0.05077346 0.09728509 0.07113976
v -0.04976204 0.08825387 0.06974769
v -0.03563053 0.09728509 0.07885555
v -0.03509877 0.08825387 0.07721888
v -0.01884451 0.09728509 0.0815141
v -0.01884451 0.08825387 0.07979341
v -0.002058459 0.09728509 0.07885555
v -0.00259018 0.08825387 0.07721888
v 0.01308441 0.09728509 0.07113975
v 0.01207304 0.08825387 0.06974769
v 0.02510195 0.09728509 0.05912228
v 0.02370985 0.08825387 0.05811081
v 0.03281773 0.09728509 0.04397936
v 0.0311811 0.08825386 0.04344761
v 0.0354763 0.09728509 0.02719331
v 0.03375542 0.08825386 0.02719331
v 0.03207588 0.1005509 0.02719331
v 0.02958372 0.1005509 0.01145806
v 0.02235098 0.1005509 -0.002736855
v 0.01108577 0.1005509 -0.01400204
v -0.003109241 0.1005509 -0.02123477
v -0.01884451 0.1005509 -0.02372706
v -0.03457975 0.1005509 -0.02123477
v -0.04877472 0.1005509 -0.01400204
v -0.0600399 0.1005509 -0.002736831
v -0.06727266 0.1005509 0.01145802
v -0.06976483 0.1005509 0.02719328
v -0.06727266 0.1005509 0.04292855
v -0.0600399 0.1005509 0.05712364
v -0.0487747 0.1005509 0.06838882
v -0.03457975 0.1005509 0.07562154
v -0.01884451 0.1005509 0.07811368
v -0.003109241 0.1005509 0.07562154
v 0.01108575 0.1005509 0.06838882
v 0.02235098 0.1005509 0.05712364
v 0.02958355 0.1005509 0.04292858
v -0.0319644 0.1028391 0.06757236
v -0.04379999 0.1028391 0.06154163
v -0.01884451 0.101794 0.02719328
v -0.05319283 0.1028391 0.05214882
v -0.05922351 0.1028391 0.04031334
v -0.06130143 0.1028391 0.02719328
v -0.05922351 0.1028391 0.01407342
v -0.05319283 0.1028391 0.002237773
v -0.04379999 0.1028391 -0.007155061
v -0.0319644 0.1028391 -0.01318572
v -0.01884451 0.1028391 -0.01526368
v -0.005724478 0.1028391 -0.01318572
v 0.006111002 0.1028391 -0.007155061
v 0.01550384 0.1028391 0.002237773
v 0.02153456 0.1028391 0.01407342
v -0.01884451 0.1028391 0.06965027
v -0.005724478 0.1028391 0.06757236
v 0.006111002 0.1028391 0.06154165
v 0.01550384 0.1028391 0.05214885
v 0.02150261 0.08599637 -0.002120519
v -0.01884451 0.08599637 0.02719328
v 0.02858641 0.08599634 0.0117821
v 0.01046944 0.08599637 -0.01315372
v -0.003433323 0.08599637 -0.02023747
v -0.01884451 0.08599637 -0.02267835
v -0.0342557 0.08599637 -0.02023749
v -0.04815834 0.08599637 -0.0131537
v -0.05919154 0.08599637 -0.002120471
v -0.06627531 0.08599637 0.0117821
v -0.06871622 0.08599637 0.02719328
v -0.06627531 0.08599637 0.04260452
v -0.05919154 0.08599637 0.05650728
v -0.04815834 0.08599637 0.06754045
v -0.0342557 0.08599637 0.07462423
v -0.01884451 0.08599637 0.07706513
v -0.003433323 0.08599637 0.07462423
v 0.01046939 0.08599637 0.06754045
v 0.02150261 0.08599637 0.05650726
v 0.02858641 0.08599634 0.04260454
v 0.03102724 0.08599634 0.02719331
v 0.02153456 0.1028391 0.04031336
v 0.02361248 0.1028391 0.02719331
v 0.0311811 0.08825386 0.0109391
v 0.02370985 0.08825387 -0.003724218
v 0.02150261 0.08599637 -0.002120519
v 0.02858641 0.08599634 0.0117821
v 0.03375542 0.08825386 0.02719331
v 0.03102724 0.08599634 0.02719331
v 0.01046944 0.08599637 -0.01315372
v 0.01207304 0.08825387 -0.01536102
v -0.003433323 0.08599637 -0.02023747
v -0.00259018 0.08825387 -0.02283232
v -0.01884451 0.08599637 -0.02267835
v -0.01884451 0.08825387 -0.02540665
v -0.0342557 0.08599637 -0.02023749
v -0.03509877 0.08825387 -0.0228323
v -0.04815834 0.08599637 -0.0131537
v -0.04976204 0.08825387 -0.01536093
v -0.05919154 0.08599637 -0.002120471
v -0.06139877 0.08825387 -0.003724241
v -0.06627531 0.08599637 0.0117821
v -0.06887004 0.08825387 0.0109391
v -0.06871622 0.08599637 0.02719328
v -0.07144449 0.08825387 0.02719328
v -0.06627531 0.08599637 0.04260452
v -0.06887004 0.08825387 0.04344771
v -0.05919154 0.08599637 0.05650728
v -0.06139877 0.08825387 0.05811081
v -0.04815834 0.08599637 0.06754045
v -0.04976204 0.08825387 0.06974769
v -0.0342557 0.08599637 0.07462423
v -0.03509877 0.08825387 0.07721888
v -0.01884451 0.08599637 0.07706513
v -0.01884451 0.08825387 0.07979341
v -0.003433323 0.08599637 0.07462423
v -0.00259018 0.08825387 0.07721888
v 0.01046939 0.08599637 0.06754045
v 0.01207304 0.08825387 0.06974769
v 0.02150261 0.08599637 0.05650726
v 0.02370985 0.08825387 0.05811081
v 0.02858641 0.08599634 0.04260454
v 0.0311811 0.08825386 0.04344761
vt 0.7458567 0.3525347
vt 0.7418752 0.3512731
vt 0.7384186 0.3580509
vt 0.7418153 0.3604812
vt 0.7330366 0.3634289
vt 0.7355162 0.3667899
vt 0.7262563 0.3668806
vt 0.7275759 0.3708432
vt 0.7187412 0.368068
vt 0.7187716 0.3722446
vt 0.7112269 0.3668751
vt 0.7099653 0.3708566
vt 0.7044491 0.3634185
vt 0.7020188 0.3668153
vt 0.6990711 0.3580367
vt 0.6957102 0.3605163
vt 0.6956195 0.3512563
vt 0.6916567 0.3525759
vt 0.694432 0.3437412
vt 0.6902554 0.3437717
vt 0.6956248 0.336227
vt 0.6916434 0.3349653
vt 0.6990815 0.3294491
vt 0.6956847 0.3270188
vt 0.7044633 0.3240711
vt 0.7019837 0.3207101
vt 0.7112437 0.3206194
vt 0.7099241 0.3166566
vt 0.7187588 0.3194319
vt 0.7187284 0.3152554
vt 0.7262731 0.3206248
vt 0.7275348 0.3166433
vt 0.7330509 0.3240814
vt 0.7354812 0.3206846
vt 0.738429 0.3294633
vt 0.7417899 0.3269838
vt 0.7418806 0.3362437
vt 0.7458433 0.3349241
vt 0.7430681 0.3437588
vt 0.7472447 0.3437284
vt 0.7408997 0.3437606
vt 0.7398124 0.3506047
vt 0.7366633 0.3567778
vt 0.7317607 0.3616757
vt 0.7255846 0.3648189
vt 0.7187394 0.3658997
vt 0.7118953 0.3648123
vt 0.7057222 0.3616633
vt 0.7008243 0.3567607
vt 0.6976811 0.3505846
vt 0.6966003 0.3437394
vt 0.6976876 0.3368953
vt 0.7008367 0.3307221
vt 0.7057393 0.3258242
vt 0.7119154 0.3226811
vt 0.7187606 0.3216003
vt 0.7256047 0.3226876
vt 0.7317778 0.3258367
vt 0.7366757 0.3307393
vt 0.7398189 0.3369154
vt 0.713158 0.3264614
vt 0.7080893 0.3290356
vt 0.71875 0.3437499
vt 0.7040641 0.3330501
vt 0.7014763 0.338112
vt 0.7005796 0.3437258
vt 0.7014614 0.349342
vt 0.7040356 0.3544107
vt 0.7080501 0.358436
vt 0.7131121 0.3610236
vt 0.7187258 0.3619204
vt 0.724342 0.3610386
vt 0.7294108 0.3584644
vt 0.733436 0.3544498
vt 0.7360237 0.3493879
vt 0.7187742 0.3255796
vt 0.724388 0.3264763
vt 0.7294499 0.329064
vt 0.7334644 0.3330893
vt 0.7481253 0.3206014
vt 0.7447772 0.3181689
vt 0.7487131 0.3194478
vt 0.7472097 0.321517
vt 0.7460561 0.3221048
vt 0.7447772 0.3223073
vt 0.7434984 0.3221048
vt 0.7423447 0.321517
vt 0.7414292 0.3206014
vt 0.7408413 0.3194478
vt 0.7406388 0.3181689
vt 0.7408413 0.3168901
vt 0.7414292 0.3157364
vt 0.7423447 0.3148209
vt 0.7434984 0.314233
vt 0.7447772 0.3140305
vt 0.7460561 0.314233
vt 0.7472097 0.3148209
vt 0.7481253 0.3157364
vt 0.7487131 0.3168901
vt 0.7489157 0.3181689
vt 0.7360386 0.338158
vt 0.7369204 0.3437742
vt 0.7458567 0.3525347
vt 0.7418153 0.3604812
vt 0.7431048 0.3614366
vt 0.7473782 0.353045
vt 0.7472447 0.3437284
vt 0.7488494 0.3437434
vt 0.7364473 0.368097
vt 0.7355162 0.3667899
vt 0.7280574 0.3723741
vt 0.7275759 0.3708432
vt 0.7187566 0.3738494
vt 0.7187716 0.3722446
vt 0.709455 0.3723782
vt 0.7099653 0.3708566
vt 0.7010633 0.3681047
vt 0.7020188 0.3668153
vt 0.694403 0.3614472
vt 0.6957102 0.3605163
vt 0.6901259 0.3530574
vt 0.6916567 0.3525759
vt 0.6886507 0.3437566
vt 0.6902554 0.3437717
vt 0.6901218 0.3344551
vt 0.6916434 0.3349653
vt 0.6943953 0.3260633
vt 0.6956847 0.3270188
vt 0.7010527 0.319403
vt 0.7019837 0.3207101
vt 0.7094426 0.3151258
vt 0.7099241 0.3166566
vt 0.7187434 0.3136507
vt 0.7187284 0.3152554
vt 0.7280449 0.3151218
vt 0.7275348 0.3166433
vt 0.7364367 0.3193953
vt 0.7354812 0.3206846
vt 0.743097 0.3260527
vt 0.7417899 0.3269838
vt 0.7473742 0.3344426
vt 0.7458433 0.3349241
vn 0.9342488 -0.1871755 -0.3035531
vn 0.9443216 0.1187992 -0.306828
vn 0.8032866 0.1188058 -0.5836231
vn 0.79472 -0.1871674 -0.5773981
vn 0.5836212 0.1188111 -0.8032871
vn 0.5773993 -0.1871628 -0.7947201
vn 0.3068278 0.1188092 -0.9443204
vn 0.3035551 -0.1871662 -0.9342501
vn -6.223239E-07 0.1188054 -0.9929175
vn -7.424989E-07 -0.1871697 -0.9823276
vn -0.3068293 0.1188065 -0.9443202
vn -0.3035559 -0.1871698 -0.934249
vn -0.5836213 0.1188088 -0.8032874
vn -0.5773979 -0.1871698 -0.7947195
vn -0.8032877 0.1188056 -0.5836214
vn -0.7947196 -0.1871714 -0.5773973
vn -0.9443207 0.1188017 -0.3068297
vn -0.9342486 -0.1871728 -0.3035554
vn -0.992918 0.118802 -2.256158E-08
vn -0.9823271 -0.1871721 -5.269342E-08
vn -0.9443214 0.1188032 0.306827
vn -0.9342484 -0.1871715 0.3035567
vn -0.8032876 0.1188031 0.5836221
vn -0.7947204 -0.1871719 0.5773959
vn -0.5836228 0.1188026 0.8032871
vn -0.5773974 -0.1871712 0.7947196
vn -0.3068281 0.1188027 0.9443212
vn -0.3035559 -0.1871703 0.9342489
vn 0 0.1188041 0.9929178
vn 0 -0.1871697 0.9823276
vn 0.306828 0.1188029 0.9443212
vn 0.3035569 -0.1871684 0.934249
vn 0.5836231 0.1188026 0.803287
vn 0.5773991 -0.1871651 0.7947198
vn 0.803287 0.1188043 0.5836228
vn 0.7947198 -0.1871672 0.5773983
vn 0.9443215 0.1188044 0.3068265
vn 0.9342486 -0.1871748 0.3035541
vn 0.9929181 0.118801 6.373639E-07
vn 0.982326 -0.1871783 -3.832244E-08
vn 0.4554101 0.8902818 1.151582E-06
vn 0.4331203 0.890282 -0.1407298
vn 0.3684328 0.8902825 -0.2676836
vn 0.2676843 0.890282 -0.3684334
vn 0.1407305 0.8902816 -0.4331209
vn -1.225505E-07 0.890281 -0.4554117
vn -0.1407307 0.8902814 -0.4331211
vn -0.2676833 0.8902825 -0.3684326
vn -0.3684325 0.8902828 -0.2676828
vn -0.4331205 0.8902817 -0.1407304
vn -0.4554098 0.890282 0
vn -0.4331208 0.8902817 0.1407292
vn -0.3684323 0.8902828 0.2676828
vn -0.2676814 0.8902834 0.3684321
vn -0.1407292 0.8902821 0.4331203
vn 0 0.8902821 0.4554095
vn 0.1407292 0.8902819 0.4331206
vn 0.2676836 0.890282 0.3684337
vn 0.3684341 0.8902818 0.267684
vn 0.4331194 0.8902825 0.1407292
vn -0.02405647 0.9969652 0.0740383
vn -0.04575741 0.9969653 0.06297956
vn 0 1 1.093827E-08
vn -0.06297967 0.9969652 0.04575792
vn -0.07403841 0.9969652 0.02405662
vn -0.07784718 0.9969653 -1.344928E-08
vn -0.07403795 0.9969652 -0.0240564
vn -0.06297959 0.9969652 -0.0457581
vn -0.04575777 0.9969652 -0.0629802
vn -0.02405667 0.9969652 -0.07403839
vn -1.104765E-08 0.9969652 -0.07784773
vn 0.02405683 0.9969651 -0.07403852
vn 0.0457577 0.9969652 -0.0629802
vn 0.06297933 0.9969653 -0.04575795
vn 0.07403795 0.9969652 -0.02405678
vn 0 0.9969653 0.07784708
vn 0.02405658 0.9969652 0.07403807
vn 0.04575742 0.9969653 0.06297932
vn 0.06297946 0.9969653 0.0457577
vn -4.546659E-07 -1 -3.877575E-07
vn -1.387395E-07 -1 0
vn -6.936961E-07 -1 -3.87756E-07
vn 0 -1 1.938774E-07
vn 0 -1 1.938783E-07
vn 0 -1 0
vn 0 -1 0
vn 0 -1 0
vn 0 -1 0
vn 0 -1 -3.877585E-07
vn 0 -1 0
vn 0 -1 3.877545E-07
vn 0 -1 0
vn 0 -1 -1.938784E-07
vn 0 -1 -1.938777E-07
vn 0 -1 0
vn 0 -1 0
vn 0 -1 0
vn -4.546651E-07 -1 3.877546E-07
vn -6.936966E-07 -1 3.877553E-07
vn -4.780634E-07 -1 0
vn 0.07403862 0.9969651 0.024057
vn 0.07784715 0.9969653 1.998179E-07
vn 0.6063133 -0.770438 -0.1970011
vn 0.5157523 -0.7704459 -0.3747166
vn 0.5157533 -0.7704459 -0.3747154
vn 0.6063128 -0.770438 -0.1970029
vn 0.6375194 -0.7704342 2.864054E-08
vn 0.6375194 -0.7704342 0
vn 0.3747116 -0.7704529 -0.5157457
vn 0.3747093 -0.7704529 -0.5157473
vn 0.1969948 -0.7704542 -0.6062947
vn 0.1969958 -0.7704542 -0.6062945
vn 3.37547E-08 -0.7704512 -0.6374989
vn 5.011964E-08 -0.7704512 -0.637499
vn -0.1969988 -0.7704499 -0.606299
vn -0.1969978 -0.7704499 -0.6062993
vn -0.3747113 -0.7704521 -0.515747
vn -0.3747125 -0.7704521 -0.5157461
vn -0.5157492 -0.7704504 -0.3747118
vn -0.515747 -0.7704505 -0.3747147
vn -0.6063038 -0.7704451 -0.1970022
vn -0.6063046 -0.7704452 -0.1969996
vn -0.6375065 -0.770445 1.472949E-07
vn -0.6375065 -0.770445 2.183818E-07
vn -0.6063045 -0.7704456 0.1969985
vn -0.6063034 -0.7704456 0.1970021
vn -0.5157532 -0.7704448 0.374718
vn -0.5157551 -0.7704448 0.3747152
vn -0.374717 -0.7704436 0.5157555
vn -0.3747182 -0.7704436 0.5157546
vn -0.1970016 -0.7704411 0.6063092
vn -0.197002 -0.7704411 0.6063092
vn 0 -0.7704406 0.6375117
vn 2.506046E-08 -0.7704406 0.6375118
vn 0.1970001 -0.7704421 0.6063083
vn 0.1970029 -0.7704421 0.6063075
vn 0.3747174 -0.7704436 0.5157554
vn 0.3747175 -0.7704436 0.5157553
vn 0.5157565 -0.7704414 0.3747203
vn 0.515758 -0.7704413 0.3747183
vn 0.6063139 -0.7704374 0.1970017
vn 0.6063138 -0.7704374 0.1970023
g Button(Clone) 1_0
f 3/3/3 2/2/2 1/1/1
f 4/4/4 3/3/3 1/1/1
f 5/5/5 3/3/3 4/4/4
f 6/6/6 5/5/5 4/4/4
f 7/7/7 5/5/5 6/6/6
f 8/8/8 7/7/7 6/6/6
f 9/9/9 7/7/7 8/8/8
f 10/10/10 9/9/9 8/8/8
f 11/11/11 9/9/9 10/10/10
f 12/12/12 11/11/11 10/10/10
f 13/13/13 11/11/11 12/12/12
f 14/14/14 13/13/13 12/12/12
f 15/15/15 13/13/13 14/14/14
f 16/16/16 15/15/15 14/14/14
f 17/17/17 15/15/15 16/16/16
f 18/18/18 17/17/17 16/16/16
f 19/19/19 17/17/17 18/18/18
f 20/20/20 19/19/19 18/18/18
f 21/21/21 19/19/19 20/20/20
f 22/22/22 21/21/21 20/20/20
f 23/23/23 21/21/21 22/22/22
f 24/24/24 23/23/23 22/22/22
f 25/25/25 23/23/23 24/24/24
f 26/26/26 25/25/25 24/24/24
f 27/27/27 25/25/25 26/26/26
f 28/28/28 27/27/27 26/26/26
f 29/29/29 27/27/27 28/28/28
f 30/30/30 29/29/29 28/28/28
f 31/31/31 29/29/29 30/30/30
f 32/32/32 31/31/31 30/30/30
f 33/33/33 31/31/31 32/32/32
f 34/34/34 33/33/33 32/32/32
f 35/35/35 33/33/33 34/34/34
f 36/36/36 35/35/35 34/34/34
f 37/37/37 35/35/35 36/36/36
f 38/38/38 37/37/37 36/36/36
f 39/39/39 37/37/37 38/38/38
f 40/40/40 39/39/39 38/38/38
f 2/2/2 39/39/39 40/40/40
f 1/1/1 2/2/2 40/40/40
f 41/41/41 39/39/39 2/2/2
f 42/42/42 41/41/41 2/2/2
f 2/2/2 3/3/3 42/42/42
f 3/3/3 43/43/43 42/42/42
f 3/3/3 5/5/5 43/43/43
f 5/5/5 44/44/44 43/43/43
f 5/5/5 7/7/7 44/44/44
f 7/7/7 45/45/45 44/44/44
f 7/7/7 9/9/9 45/45/45
f 9/9/9 46/46/46 45/45/45
f 9/9/9 11/11/11 46/46/46
f 11/11/11 47/47/47 46/46/46
f 11/11/11 13/13/13 47/47/47
f 13/13/13 48/48/48 47/47/47
f 13/13/13 15/15/15 48/48/48
f 15/15/15 49/49/49 48/48/48
f 15/15/15 17/17/17 49/49/49
f 17/17/17 50/50/50 49/49/49
f 17/17/17 19/19/19 50/50/50
f 19/19/19 51/51/51 50/50/50
f 19/19/19 21/21/21 51/51/51
f 21/21/21 52/52/52 51/51/51
f 21/21/21 23/23/23 52/52/52
f 23/23/23 53/53/53 52/52/52
f 23/23/23 25/25/25 53/53/53
f 25/25/25 54/54/54 53/53/53
f 25/25/25 27/27/27 54/54/54
f 27/27/27 55/55/55 54/54/54
f 27/27/27 29/29/29 55/55/55
f 29/29/29 56/56/56 55/55/55
f 29/29/29 31/31/31 56/56/56
f 31/31/31 57/57/57 56/56/56
f 31/31/31 33/33/33 57/57/57
f 33/33/33 58/58/58 57/57/57
f 33/33/33 35/35/35 58/58/58
f 35/35/35 59/59/59 58/58/58
f 35/35/35 37/37/37 59/59/59
f 37/37/37 60/60/60 59/59/59
f 37/37/37 39/39/39 60/60/60
f 39/39/39 41/41/41 60/60/60
f 55/55/55 61/61/61 54/54/54
f 61/61/61 62/62/62 54/54/54
f 61/61/61 63/63/63 62/62/62
f 62/62/62 63/63/63 64/64/64
f 64/64/64 63/63/63 65/65/65
f 65/65/65 63/63/63 66/66/66
f 66/66/66 63/63/63 67/67/67
f 67/67/67 63/63/63 68/68/68
f 68/68/68 63/63/63 69/69/69
f 69/69/69 63/63/63 70/70/70
f 70/70/70 63/63/63 71/71/71
f 71/71/71 63/63/63 72/72/72
f 72/72/72 63/63/63 73/73/73
f 73/73/73 63/63/63 74/74/74
f 74/74/74 63/63/63 75/75/75
f 76/76/76 63/63/63 61/61/61
f 77/77/77 63/63/63 76/76/76
f 78/78/78 63/63/63 77/77/77
f 79/79/79 63/63/63 78/78/78
f 74/74/74 75/75/75 42/42/42
f 43/43/43 74/74/74 42/42/42
f 73/73/73 74/74/74 43/43/43
f 44/44/44 73/73/73 43/43/43
f 72/72/72 73/73/73 44/44/44
f 45/45/45 72/72/72 44/44/44
f 71/71/71 72/72/72 45/45/45
f 46/46/46 71/71/71 45/45/45
f 70/70/70 71/71/71 46/46/46
f 47/47/47 70/70/70 46/46/46
f 69/69/69 70/70/70 47/47/47
f 48/48/48 69/69/69 47/47/47
f 68/68/68 69/69/69 48/48/48
f 49/49/49 68/68/68 48/48/48
f 67/67/67 68/68/68 49/49/49
f 50/50/50 67/67/67 49/49/49
f 66/66/66 67/67/67 50/50/50
f 51/51/51 66/66/66 50/50/50
f 65/65/65 66/66/66 51/51/51
f 52/52/52 65/65/65 51/51/51
f 64/64/64 65/65/65 52/52/52
f 53/53/53 64/64/64 52/52/52
f 62/62/62 64/64/64 53/53/53
f 54/54/54 62/62/62 53/53/53
f 82/82/82 81/81/81 80/80/80
f 80/80/80 81/81/81 83/83/83
f 83/83/83 81/81/81 84/84/84
f 84/84/84 81/81/81 85/85/85
f 85/85/85 81/81/81 86/86/86
f 86/86/86 81/81/81 87/87/87
f 87/87/87 81/81/81 88/88/88
f 88/88/88 81/81/81 89/89/89
f 89/89/89 81/81/81 90/90/90
f 90/90/90 81/81/81 91/91/91
f 91/91/91 81/81/81 92/92/92
f 92/92/92 81/81/81 93/93/93
f 93/93/93 81/81/81 94/94/94
f 94/94/94 81/81/81 95/95/95
f 95/95/95 81/81/81 96/96/96
f 96/96/96 81/81/81 97/97/97
f 97/97/97 81/81/81 98/98/98
f 98/98/98 81/81/81 99/99/99
f 99/99/99 81/81/81 100/100/100
f 100/100/100 81/81/81 82/82/82
f 101/101/101 63/63/63 79/79/79
f 102/102/102 63/63/63 101/101/101
f 75/75/75 63/63/63 102/102/102
f 101/101/101 79/79/79 59/59/59
f 59/59/59 79/79/79 58/58/58
f 79/79/79 78/78/78 58/58/58
f 58/58/58 78/78/78 57/57/57
f 78/78/78 77/77/77 57/57/57
f 57/57/57 77/77/77 56/56/56
f 77/77/77 76/76/76 56/56/56
f 56/56/56 76/76/76 55/55/55
f 76/76/76 61/61/61 55/55/55
f 60/60/60 101/101/101 59/59/59
f 102/102/102 101/101/101 60/60/60
f 41/41/41 102/102/102 60/60/60
f 75/75/75 102/102/102 41/41/41
f 42/42/42 75/75/75 41/41/41
f 105/105/105 104/104/104 103/103/103
f 106/106/106 105/105/105 103/103/103
f 103/103/103 107/107/107 106/106/106
f 107/107/107 108/108/108 106/106/106
f 105/105/105 109/109/109 104/104/104
f 109/109/109 110/110/110 104/104/104
f 109/109/109 111/111/111 110/110/110
f 111/111/111 112/112/112 110/110/110
f 111/111/111 113/113/113 112/112/112
f 113/113/113 114/114/114 112/112/112
f 113/113/113 115/115/115 114/114/114
f 115/115/115 116/116/116 114/114/114
f 115/115/115 117/117/117 116/116/116
f 117/117/117 118/118/118 116/116/116
f 117/117/117 119/119/119 118/118/118
f 119/119/119 120/120/120 118/118/118
f 119/119/119 121/121/121 120/120/120
f 121/121/121 122/122/122 120/120/120
f 121/121/121 123/123/123 122/122/122
f 123/123/123 124/124/124 122/122/122
f 123/123/123 125/125/125 124/124/124
f 125/125/125 126/126/126 124/124/124
f 125/125/125 127/127/127 126/126/126
f 127/127/127 128/128/128 126/126/126
f 127/127/127 129/129/129 128/128/128
f 129/129/129 130/130/130 128/128/128
f 129/129/129 131/131/131 130/130/130
f 131/131/131 132/132/132 130/130/130
f 131/131/131 133/133/133 132/132/132
f 133/133/133 134/134/134 132/132/132
f 133/133/133 135/135/135 134/134/134
f 135/135/135 136/136/136 134/134/134
f 135/135/135 137/137/137 136/136/136
f 137/137/137 138/138/138 136/136/136
f 137/137/137 139/139/139 138/138/138
f 139/139/139 140/140/140 138/138/138
f 139/139/139 141/141/141 140/140/140
f 141/141/141 142/142/142 140/140/140
f 141/141/141 108/108/108 142/142/142
f 108/108/108 107/107/107 142/142/142
