g Wires_Snipped_3_L(Clone) 0
v 0.0023036 0.004909374 -0.000967311
v 0.0007352867 -0.0001510582 -0.001618861
v 0.002794506 -0.0006945038 -0.000398921
v 0.00412722 0.00411142 0.0004183779
v 0.0002490997 0.005672649 -0.0008843413
v -0.001555821 0.0003394165 -0.001454733
v -0.0008926392 0.006038132 0.0006420136
v -0.002876614 0.000570736 0
v -0.0004067879 0.005769139 0.002601816
v -0.002178619 0.0004729805 0.001865006
v 0.001514534 0.004954475 0.003835774
v 0 0 0.003026487
v 0.003627064 0.004066017 0.003752711
v 0.002292633 -0.0006286431 0.002863027
v 0.004711056 0.003669445 0.002381516
v 0.003446297 -0.0009423142 0.001468659
v 0.00412722 0.00411142 0.0004183779
v 0.002794506 -0.0006945038 -0.000398921
v 0.008244088 0.005140556 0.004004099
v 0.007870438 0.005830674 0.002069855
v 0.01340237 0.00520562 0.004763509
v 0.01359291 0.004162125 0.006571008
v 0.01839676 0.001059975 0.008690454
v 0.01302862 0.004578045 0.007997324
v 0.01837664 0.001326313 0.01038523
v 0.02332521 -0.001750576 0.01084986
v 0.02368755 -0.0006043396 0.01176958
v 0.01809569 0.003005837 0.01114597
v 0.02356744 0.0008472672 0.01136103
v 0.01750484 0.005418942 0.01036482
v 0.02329622 0.00167437 0.009788515
v 0.01725288 0.006896202 0.00857792
v 0.02304583 0.001062576 0.007931615
v 0.01765542 0.006321179 0.006973554
v 0.02284603 -0.0003952942 0.006973363
v 0.01820946 0.004214386 0.006441976
v 0.02285519 -0.001695919 0.007566453
v 0.01839595 0.002151127 0.007086469
v 0.02289377 -0.002054241 0.00913067
v 0.01197315 0.006190518 0.008255388
v 0.01100669 0.008179127 0.007082368
v 0.0107769 0.00926104 0.005171682
v 0.01143041 0.008711605 0.003730393
v 0.01253629 0.00702826 0.00359583
v 0.01340237 0.00520562 0.004763509
v 0.005901531 0.006856911 0.005395414
v 0.007427792 0.005554447 0.005349256
v 0.004646542 0.008210411 0.004134847
v 0.004376747 0.008798191 0.002230265
v 0.005166821 0.008314416 0.0007721911
v 0.006585693 0.007117722 0.0006966601
v 0.007870438 0.005830674 0.002069855
v 0.02912054 -0.008348587 0.003228378
v 0.03077426 -0.01398325 0.001288701
v 0.0321652 -0.0129684 -0.0002290707
v 0.02989431 -0.007389985 0.002246857
v 0.03435431 -0.01194976 0.0009359379
v 0.03117671 -0.006728802 0.002899933
v 0.03541699 -0.01168095 0.003375818
v 0.03209 -0.006750592 0.004679204
v 0.03526245 -0.0120662 0.005841352
v 0.03215843 -0.007423355 0.00645466
v 0.03362756 -0.01314316 0.007076551
v 0.03135219 -0.008376904 0.007277299
v 0.03196912 -0.01406368 0.005906201
v 0.03012848 -0.009001133 0.006627466
v 0.03111658 -0.01422815 0.003766251
v 0.02929998 -0.008936568 0.005004598
v 0.03077426 -0.01398325 0.001288701
v 0.02912054 -0.008348587 0.003228378
v 0.03386908 -0.01933758 0.001879407
v 0.03414932 -0.01915522 0.004572774
v 0.03997074 -0.02289126 0.004436589
v 0.03987613 -0.02294633 0.00643797
v 0.04463535 -0.02426041 0.006011106
v 0.04458871 -0.02437246 0.008294011
v 0.05265613 -0.02124229 0.01004839
v 0.05342746 -0.02147812 0.01264744
v 0.04539805 -0.02217909 0.01080094
v 0.05279403 -0.02062066 0.01475163
v 0.04560433 -0.02055359 0.01187945
v 0.05127721 -0.01913392 0.01525736
v 0.04567876 -0.01935272 0.01115627
v 0.04990325 -0.01798469 0.014044
v 0.04564252 -0.01910464 0.009129621
v 0.04902735 -0.01821211 0.01163378
v 0.04550386 -0.02015579 0.006932069
v 0.04945055 -0.019033 0.009462453
v 0.04509745 -0.02249572 0.005411817
v 0.0507061 -0.02044281 0.008438588
v 0.04463535 -0.02426041 0.006011106
v 0.05265613 -0.02124229 0.01004839
v 0.04071517 -0.02059419 0.009607889
v 0.04021922 -0.02182335 0.008547307
v 0.03487964 -0.0184157 0.00694132
v 0.03612524 -0.01710442 0.008267214
v 0.03771735 -0.01583603 0.0071373
v 0.04129382 -0.01943503 0.008993341
v 0.04165793 -0.01913519 0.007028867
v 0.03815828 -0.01578951 0.004520416
v 0.04140935 -0.02003088 0.004825784
v 0.03730889 -0.01663666 0.001865483
v 0.0406232 -0.0217725 0.003679276
v 0.03522625 -0.0183226 0.0004436493
v 0.03997074 -0.02289126 0.004436589
v 0.03386908 -0.01933758 0.001879407
v 0.02285519 -0.001695919 0.007566453
v 0.01839595 0.002151127 0.007086469
v 0.02650891 -0.00455505 0.006042577
v 0.02675324 -0.004992096 0.007756807
v 0.0275846 -0.004737686 0.009386445
v 0.02846222 -0.003839874 0.01005345
v 0.02886653 -0.002695053 0.009465124
v 0.02865878 -0.002026623 0.007835103
v 0.02782507 -0.002439953 0.006007577
v 0.02692466 -0.003540642 0.005260564
v 0.02650891 -0.00455505 0.006042577
v 0.04990325 -0.01798469 0.014044
v 0.04902735 -0.01821211 0.01163378
v 0.05118947 -0.01980782 0.0119689
v 0.04945055 -0.019033 0.009462453
v 0.0507061 -0.02044281 0.008438588
v 0.05265613 -0.02124229 0.01004839
v 0.05342746 -0.02147812 0.01264744
v 0.05127721 -0.01913392 0.01525736
v 0.05279403 -0.02062066 0.01475163
v 0.05088382 -0.02048501 0.01079912
v 0.05563069 -0.01966882 0.01109915
v 0.05550085 -0.01892348 0.01112585
v 0.05075398 -0.01973967 0.01082592
v 0.0553741 -0.01860156 0.01225548
v 0.05062724 -0.01941775 0.01195555
v 0.0553772 -0.01902503 0.0133584
v 0.05063033 -0.01984122 0.01305847
v 0.05550705 -0.01977037 0.0133317
v 0.05076018 -0.02058656 0.01303167
v 0.05563379 -0.0200923 0.01220207
v 0.05088692 -0.02090848 0.01190205
v 0.05550395 -0.01934693 0.01222878
vt 0.4920123 0.3974587
vt 0.4920123 0.4993828
vt 0.4997664 0.4993828
vt 0.4997664 0.3974587
vt 0.4842582 0.3974587
vt 0.4842582 0.4993828
vt 0.4765041 0.3974587
vt 0.4765041 0.4993828
vt 0.46875 0.3974587
vt 0.46875 0.4993828
vt 0.4609959 0.3974587
vt 0.4609959 0.4993828
vt 0.4532418 0.3974587
vt 0.4532418 0.4993828
vt 0.4454877 0.3974587
vt 0.4454877 0.4993828
vt 0.4377337 0.3974587
vt 0.4377337 0.4993828
vt 0.4454877 0.3748089
vt 0.4377337 0.3748089
vt 0.4377337 0.3521591
vt 0.4454877 0.3521591
vt 0.4454877 0.3295093
vt 0.4532418 0.3521591
vt 0.4532418 0.3295093
vt 0.4532418 0.3068595
vt 0.4609959 0.3068595
vt 0.4609959 0.3295093
vt 0.46875 0.3068595
vt 0.46875 0.3295093
vt 0.4765041 0.3068595
vt 0.4765041 0.3295093
vt 0.4842582 0.3068595
vt 0.4842582 0.3295093
vt 0.4920123 0.3068595
vt 0.4920123 0.3295093
vt 0.4997664 0.3068595
vt 0.4997664 0.3295093
vt 0.4454877 0.3068595
vt 0.4609959 0.3521591
vt 0.46875 0.3521591
vt 0.4765041 0.3521591
vt 0.4842582 0.3521591
vt 0.4920123 0.3521591
vt 0.4997664 0.3521591
vt 0.4609959 0.3748089
vt 0.4532418 0.3748089
vt 0.46875 0.3748089
vt 0.4765041 0.3748089
vt 0.4842582 0.3748089
vt 0.4920123 0.3748089
vt 0.4997664 0.3748089
vt 0.4997664 0.2728848
vt 0.4997664 0.2615599
vt 0.4920123 0.2615599
vt 0.4920123 0.2728848
vt 0.4842582 0.2615599
vt 0.4842582 0.2728848
vt 0.4765041 0.2615599
vt 0.4765041 0.2728848
vt 0.46875 0.2615599
vt 0.46875 0.2728848
vt 0.4609959 0.2615599
vt 0.4609959 0.2728848
vt 0.4532418 0.2615599
vt 0.4532418 0.2728848
vt 0.4454877 0.2615599
vt 0.4454877 0.2728848
vt 0.4377337 0.2615599
vt 0.4377337 0.2728848
vt 0.4377337 0.250235
vt 0.4454877 0.250235
vt 0.4377337 0.23891
vt 0.4454877 0.23891
vt 0.4377337 0.2275852
vt 0.4454877 0.2275852
vt 0.4377337 0.2162603
vt 0.4454877 0.2162603
vt 0.4532418 0.2275852
vt 0.4532418 0.2162603
vt 0.4609959 0.2275852
vt 0.4609959 0.2162603
vt 0.46875 0.2275852
vt 0.46875 0.2162603
vt 0.4765041 0.2275852
vt 0.4765041 0.2162603
vt 0.4842582 0.2275852
vt 0.4842582 0.2162603
vt 0.4920123 0.2275852
vt 0.4920123 0.2162603
vt 0.4997664 0.2275852
vt 0.4997664 0.2162603
vt 0.4609959 0.23891
vt 0.4532418 0.23891
vt 0.4532418 0.250235
vt 0.4609959 0.250235
vt 0.46875 0.250235
vt 0.46875 0.23891
vt 0.4765041 0.23891
vt 0.4765041 0.250235
vt 0.4842582 0.23891
vt 0.4842582 0.250235
vt 0.4920123 0.23891
vt 0.4920123 0.250235
vt 0.4997664 0.23891
vt 0.4997664 0.250235
vt 0.4377337 0.3068595
vt 0.4377337 0.3295093
vt 0.4377337 0.2955346
vt 0.4454877 0.2955346
vt 0.4532418 0.2955346
vt 0.4609959 0.2955346
vt 0.46875 0.2955346
vt 0.4765041 0.2955346
vt 0.4842582 0.2955346
vt 0.4920123 0.2955346
vt 0.4997664 0.2955346
vt 0.4813145 0.3020147
vt 0.480462 0.2200281
vt 0.4683235 0.2602844
vt 0.4735347 0.1595468
vt 0.4633659 0.1432521
vt 0.4561852 0.2133776
vt 0.456185 0.3005406
vt 0.4745068 0.3545067
vt 0.46387 0.356743
vt 0.5025007 0.530713
vt 0.5021183 0.5295631
vt 0.5014154 0.5295631
vt 0.5010331 0.530713
vt 0.5010639 0.5282356
vt 0.5002992 0.5282356
vt 0.5014154 0.5269082
vt 0.501033 0.5257583
vt 0.5021182 0.5269082
vt 0.5025006 0.5257583
vt 0.5024697 0.5282356
vt 0.5032345 0.5282356
vt 0.5017669 0.5282356
vn 0.2657149 0.1023022 -0.9586082
vn 0.2619862 0.04968052 -0.9637921
vn 0.7407009 -0.106723 -0.6633042
vn 0.6640624 -0.285448 -0.691043
vn -0.3125104 0.4762675 -0.821892
vn -0.3894489 0.2390527 -0.8894848
vn -0.7545869 0.6393548 -0.1477299
vn -0.9157802 0.3413974 -0.2116468
vn -0.6681159 0.4381757 0.6013511
vn -0.7642157 0.1693531 0.6223294
vn -0.3375783 0.04584061 0.9401806
vn -0.2880519 -0.06335502 0.9555167
vn 0.1201837 -0.4308814 0.8943697
vn 0.3341124 -0.2583697 0.9064292
vn 0.7393369 -0.6686625 0.07919265
vn 0.9544709 -0.2841996 0.09064175
vn 0.6640624 -0.285448 -0.691043
vn 0.7407009 -0.106723 -0.6633042
vn 0.07974452 -0.9907349 -0.1099327
vn 0.4040782 -0.6111476 -0.6806022
vn 0.1442678 -0.66181 -0.7356592
vn -0.4142328 -0.9022623 0.1197238
vn -0.5355319 -0.8377842 -0.1064103
vn -0.4070655 -0.9052521 0.1217221
vn -0.5348819 -0.6751489 0.5080113
vn -0.3940615 -0.7083622 0.5856096
vn 0.04686479 -0.1184443 0.9918541
vn -0.2847866 -0.04804258 0.9573863
vn 0.4285873 0.5865511 0.6872196
vn 0.1077225 0.6236181 0.7742714
vn 0.6021681 0.7939766 0.08363398
vn 0.3945614 0.8941658 0.2116338
vn 0.5160097 0.6790659 -0.5221145
vn 0.5943666 0.6686161 -0.4468566
vn -0.0430145 0.1147026 -0.9924682
vn 0.3956794 0.08355333 -0.91458
vn -0.5806554 -0.6414084 -0.5014324
vn -0.07837474 -0.3587844 -0.9301243
vn -0.5708628 -0.8194643 0.05093199
vn -0.4697317 -0.458805 0.7542216
vn -0.3592343 0.3510527 0.8647038
vn -0.1412947 0.8723758 0.4679703
vn 0.2638354 0.9337698 -0.2417951
vn 0.5033196 0.380854 -0.7756414
vn 0.1442678 -0.66181 -0.7356592
vn -0.3728138 0.08655729 0.9238603
vn -0.2510737 -0.7271596 0.638906
vn -0.3840142 0.7025707 0.5991057
vn -0.2727395 0.9616755 -0.02816757
vn 0.04783414 0.7458799 -0.6643606
vn 0.4050214 0.0901943 -0.9098477
vn 0.4040782 -0.6111476 -0.6806022
vn -0.9053796 -0.230387 -0.3566646
vn -0.8543766 -0.3528437 -0.3814996
vn -0.1361026 0.06217466 -0.9887418
vn -0.2911239 0.3306807 -0.8977177
vn 0.5735519 0.4048396 -0.7121398
vn 0.4551505 0.6298751 -0.629361
vn 0.8210549 0.5407785 -0.1828316
vn 0.7728127 0.6159026 -0.1530505
vn 0.7136214 0.5140933 0.4758702
vn 0.8147018 0.4053534 0.4146682
vn -0.08340973 0.07826339 0.9934373
vn 0.2377278 -0.1304363 0.9625341
vn -0.7297755 -0.3460271 0.5896549
vn -0.5926172 -0.4910171 0.6385194
vn -0.8828107 -0.4233015 0.2036204
vn -0.8690301 -0.4608467 0.1800195
vn -0.8543766 -0.3528437 -0.3814996
vn -0.9053796 -0.230387 -0.3566646
vn -0.6101437 -0.7033857 -0.364655
vn -0.7127252 -0.6648919 0.2234758
vn -0.2863337 -0.8868514 -0.3626398
vn -0.4807339 -0.8331237 0.2734954
vn 0.2464468 -0.8636492 -0.439743
vn 0.01187033 -0.9713272 0.2374499
vn 0.4296068 -0.8699993 -0.2419488
vn 0.09045202 -0.9263825 0.3655594
vn -0.2060182 -0.7284006 0.6534439
vn -0.155195 -0.740552 0.6538328
vn -0.4385351 -0.2058472 0.8748222
vn -0.3958355 -0.3844954 0.833953
vn -0.4028845 0.7765216 0.4844566
vn -0.5657468 0.4680953 0.6788353
vn -0.02260809 0.9840916 -0.1762178
vn -0.222619 0.971006 -0.08711042
vn 0.2583904 0.7053348 -0.660104
vn 0.149523 0.7713135 -0.6186423
vn 0.4385142 -0.01859974 -0.8985319
vn 0.4906817 -0.0287749 -0.8708637
vn 0.2464468 -0.8636492 -0.439743
vn 0.4296068 -0.8699993 -0.2419488
vn -0.3584709 -0.09655783 0.9285339
vn -0.4758893 -0.617605 0.6261737
vn -0.6489652 -0.4898896 0.5821102
vn -0.2588067 0.0565193 0.9642741
vn 0.5270306 0.6525849 0.5444002
vn 0.1059556 0.8093647 0.5776696
vn 0.4909946 0.8590826 -0.1445727
vn 0.7932978 0.5860341 -0.1650533
vn 0.5891055 0.4521909 -0.669685
vn 0.6667085 0.2727811 -0.6936066
vn 0.3383944 -0.2272725 -0.9131464
vn 0.1124012 -0.2554664 -0.9602619
vn -0.2863337 -0.8868514 -0.3626398
vn -0.6101437 -0.7033857 -0.364655
vn -0.5806554 -0.6414084 -0.5014324
vn -0.07837474 -0.3587844 -0.9301243
vn -0.7936 -0.4784401 -0.3758909
vn -0.6749588 -0.7195924 0.1631486
vn -0.3415956 -0.6970389 0.6304358
vn 0.3571845 -0.1947104 0.9135136
vn 0.7322128 0.4863136 0.4768265
vn 0.6653129 0.7428796 -0.07408644
vn 0.3736313 0.7324186 -0.5691772
vn -0.3241305 0.2892881 -0.9006953
vn -0.7936 -0.4784401 -0.3758909
vn 0.6661314 0.7142774 -0.2146544
vn 0.6006411 0.7651231 -0.2319849
vn 0.6181375 0.7640117 -0.1849112
vn 0.6280923 0.7510327 -0.2035927
vn 0.5858558 0.7798461 -0.2204837
vn 0.5606974 0.8090734 -0.1761208
vn 0.6171471 0.7773301 -0.1220139
vn 0.684898 0.7099955 -0.1637717
vn 0.6426703 0.7510787 -0.1511811
vn 0.1597331 -0.6587631 -0.7351983
vn 0.224639 -0.646089 -0.7294562
vn -0.01562269 0.7330328 -0.6800138
vn -0.08105771 0.7234082 -0.6856457
vn -0.110169 0.9931448 0.03906836
vn -0.171516 0.9845492 0.03528716
vn -0.0941188 0.6685341 0.7377017
vn -0.1597274 0.6587573 0.7352046
vn 0.1461303 -0.7105937 0.6882604
vn 0.08105403 -0.7234109 0.6856434
vn 0.2322017 -0.9721621 -0.03135737
vn 0.1715163 -0.9845493 -0.03528248
vn 0.9836324 0.1691221 0.06216818
g Wires_Snipped_3_L(Clone) 0_0
f 3/3/3 2/2/2 1/1/1
f 4/4/4 3/3/3 1/1/1
f 1/1/1 2/2/2 5/5/5
f 2/2/2 6/6/6 5/5/5
f 5/5/5 6/6/6 7/7/7
f 6/6/6 8/8/8 7/7/7
f 7/7/7 8/8/8 9/9/9
f 8/8/8 10/10/10 9/9/9
f 9/9/9 10/10/10 11/11/11
f 10/10/10 12/12/12 11/11/11
f 11/11/11 12/12/12 13/13/13
f 12/12/12 14/14/14 13/13/13
f 13/13/13 14/14/14 15/15/15
f 14/14/14 16/16/16 15/15/15
f 15/15/15 16/16/16 17/17/17
f 16/16/16 18/18/18 17/17/17
f 15/15/15 17/17/17 19/19/19
f 17/17/17 20/20/20 19/19/19
f 20/20/20 21/21/21 19/19/19
f 21/21/21 22/22/22 19/19/19
f 23/23/23 22/22/22 21/21/21
f 22/22/22 23/23/23 24/24/24
f 23/23/23 25/25/25 24/24/24
f 26/26/26 25/25/25 23/23/23
f 26/26/26 27/27/27 25/25/25
f 27/27/27 28/28/28 25/25/25
f 27/27/27 29/29/29 28/28/28
f 29/29/29 30/30/30 28/28/28
f 29/29/29 31/31/31 30/30/30
f 31/31/31 32/32/32 30/30/30
f 31/31/31 33/33/33 32/32/32
f 33/33/33 34/34/34 32/32/32
f 33/33/33 35/35/35 34/34/34
f 35/35/35 36/36/36 34/34/34
f 35/35/35 37/37/37 36/36/36
f 37/37/37 38/38/38 36/36/36
f 39/39/39 26/26/26 23/23/23
f 25/25/25 28/28/28 40/40/40
f 24/24/24 25/25/25 40/40/40
f 28/28/28 30/30/30 41/41/41
f 40/40/40 28/28/28 41/41/41
f 30/30/30 32/32/32 42/42/42
f 41/41/41 30/30/30 42/42/42
f 32/32/32 34/34/34 43/43/43
f 42/42/42 32/32/32 43/43/43
f 34/34/34 36/36/36 44/44/44
f 43/43/43 34/34/34 44/44/44
f 36/36/36 38/38/38 45/45/45
f 44/44/44 36/36/36 45/45/45
f 24/24/24 40/40/40 46/46/46
f 47/47/47 24/24/24 46/46/46
f 22/22/22 24/24/24 47/47/47
f 19/19/19 22/22/22 47/47/47
f 15/15/15 19/19/19 47/47/47
f 13/13/13 15/15/15 47/47/47
f 13/13/13 47/47/47 46/46/46
f 11/11/11 13/13/13 46/46/46
f 40/40/40 41/41/41 48/48/48
f 46/46/46 40/40/40 48/48/48
f 11/11/11 46/46/46 48/48/48
f 9/9/9 11/11/11 48/48/48
f 41/41/41 42/42/42 49/49/49
f 48/48/48 41/41/41 49/49/49
f 9/9/9 48/48/48 49/49/49
f 7/7/7 9/9/9 49/49/49
f 42/42/42 43/43/43 50/50/50
f 49/49/49 42/42/42 50/50/50
f 7/7/7 49/49/49 50/50/50
f 5/5/5 7/7/7 50/50/50
f 43/43/43 44/44/44 51/51/51
f 50/50/50 43/43/43 51/51/51
f 5/5/5 50/50/50 51/51/51
f 1/1/1 5/5/5 51/51/51
f 1/1/1 51/51/51 4/4/4
f 51/51/51 52/52/52 4/4/4
f 52/52/52 51/51/51 45/45/45
f 51/51/51 44/44/44 45/45/45
f 55/55/55 54/54/54 53/53/53
f 56/56/56 55/55/55 53/53/53
f 57/57/57 55/55/55 56/56/56
f 58/58/58 57/57/57 56/56/56
f 59/59/59 57/57/57 58/58/58
f 60/60/60 59/59/59 58/58/58
f 61/61/61 59/59/59 60/60/60
f 62/62/62 61/61/61 60/60/60
f 63/63/63 61/61/61 62/62/62
f 64/64/64 63/63/63 62/62/62
f 65/65/65 63/63/63 64/64/64
f 66/66/66 65/65/65 64/64/64
f 67/67/67 65/65/65 66/66/66
f 68/68/68 67/67/67 66/66/66
f 69/69/69 67/67/67 68/68/68
f 70/70/70 69/69/69 68/68/68
f 69/69/69 71/71/71 67/67/67
f 71/71/71 72/72/72 67/67/67
f 67/67/67 72/72/72 65/65/65
f 71/71/71 73/73/73 72/72/72
f 73/73/73 74/74/74 72/72/72
f 73/73/73 75/75/75 74/74/74
f 75/75/75 76/76/76 74/74/74
f 75/75/75 77/77/77 76/76/76
f 77/77/77 78/78/78 76/76/76
f 76/76/76 78/78/78 79/79/79
f 78/78/78 80/80/80 79/79/79
f 79/79/79 80/80/80 81/81/81
f 80/80/80 82/82/82 81/81/81
f 81/81/81 82/82/82 83/83/83
f 82/82/82 84/84/84 83/83/83
f 83/83/83 84/84/84 85/85/85
f 84/84/84 86/86/86 85/85/85
f 85/85/85 86/86/86 87/87/87
f 86/86/86 88/88/88 87/87/87
f 87/87/87 88/88/88 89/89/89
f 88/88/88 90/90/90 89/89/89
f 89/89/89 90/90/90 91/91/91
f 90/90/90 92/92/92 91/91/91
f 79/79/79 81/81/81 93/93/93
f 94/94/94 79/79/79 93/93/93
f 76/76/76 79/79/79 94/94/94
f 74/74/74 76/76/76 94/94/94
f 74/74/74 94/94/94 95/95/95
f 72/72/72 74/74/74 95/95/95
f 72/72/72 95/95/95 65/65/65
f 94/94/94 93/93/93 96/96/96
f 95/95/95 94/94/94 96/96/96
f 95/95/95 96/96/96 63/63/63
f 65/65/65 95/95/95 63/63/63
f 96/96/96 93/93/93 97/97/97
f 93/93/93 98/98/98 97/97/97
f 93/93/93 81/81/81 98/98/98
f 81/81/81 83/83/83 98/98/98
f 96/96/96 97/97/97 61/61/61
f 63/63/63 96/96/96 61/61/61
f 98/98/98 83/83/83 99/99/99
f 83/83/83 85/85/85 99/99/99
f 98/98/98 99/99/99 100/100/100
f 97/97/97 98/98/98 100/100/100
f 97/97/97 100/100/100 59/59/59
f 61/61/61 97/97/97 59/59/59
f 99/99/99 85/85/85 101/101/101
f 85/85/85 87/87/87 101/101/101
f 99/99/99 101/101/101 102/102/102
f 100/100/100 99/99/99 102/102/102
f 100/100/100 102/102/102 57/57/57
f 59/59/59 100/100/100 57/57/57
f 101/101/101 87/87/87 103/103/103
f 87/87/87 89/89/89 103/103/103
f 101/101/101 103/103/103 104/104/104
f 102/102/102 101/101/101 104/104/104
f 102/102/102 104/104/104 55/55/55
f 57/57/57 102/102/102 55/55/55
f 103/103/103 89/89/89 105/105/105
f 89/89/89 91/91/91 105/105/105
f 103/103/103 105/105/105 106/106/106
f 104/104/104 103/103/103 106/106/106
f 104/104/104 106/106/106 54/54/54
f 55/55/55 104/104/104 54/54/54
f 23/23/23 108/108/108 107/107/107
f 39/39/39 23/23/23 107/107/107
f 108/108/108 23/23/23 21/21/21
f 107/107/107 109/109/109 39/39/39
f 109/109/109 110/110/110 39/39/39
f 110/110/110 109/109/109 68/68/68
f 109/109/109 70/70/70 68/68/68
f 110/110/110 68/68/68 66/66/66
f 111/111/111 110/110/110 66/66/66
f 110/110/110 111/111/111 26/26/26
f 39/39/39 110/110/110 26/26/26
f 111/111/111 66/66/66 64/64/64
f 112/112/112 111/111/111 64/64/64
f 111/111/111 112/112/112 27/27/27
f 26/26/26 111/111/111 27/27/27
f 112/112/112 64/64/64 62/62/62
f 113/113/113 112/112/112 62/62/62
f 112/112/112 113/113/113 29/29/29
f 27/27/27 112/112/112 29/29/29
f 113/113/113 62/62/62 60/60/60
f 114/114/114 113/113/113 60/60/60
f 113/113/113 114/114/114 31/31/31
f 29/29/29 113/113/113 31/31/31
f 114/114/114 60/60/60 58/58/58
f 115/115/115 114/114/114 58/58/58
f 114/114/114 115/115/115 33/33/33
f 31/31/31 114/114/114 33/33/33
f 115/115/115 58/58/58 56/56/56
f 116/116/116 115/115/115 56/56/56
f 115/115/115 116/116/116 35/35/35
f 33/33/33 115/115/115 35/35/35
f 116/116/116 56/56/56 117/117/117
f 56/56/56 53/53/53 117/117/117
f 116/116/116 117/117/117 37/37/37
f 35/35/35 116/116/116 37/37/37
f 120/120/120 119/119/119 118/118/118
f 121/121/121 119/119/119 120/120/120
f 122/122/122 121/121/121 120/120/120
f 123/123/123 122/122/122 120/120/120
f 123/123/123 120/120/120 124/124/124
f 120/120/120 118/118/118 125/125/125
f 120/120/120 125/125/125 126/126/126
f 120/120/120 126/126/126 124/124/124
g Wires_Snipped_3_L(Clone) 0_1
f 129/129/129 128/128/128 127/127/127
f 130/130/130 129/129/129 127/127/127
f 131/131/131 129/129/129 130/130/130
f 132/132/132 131/131/131 130/130/130
f 133/133/133 131/131/131 132/132/132
f 134/134/134 133/133/133 132/132/132
f 135/135/135 133/133/133 134/134/134
f 136/136/136 135/135/135 134/134/134
f 137/137/137 135/135/135 136/136/136
f 138/138/138 137/137/137 136/136/136
f 128/128/128 137/137/137 138/138/138
f 127/127/127 128/128/128 138/138/138
f 129/129/129 139/139/139 128/128/128
f 131/131/131 139/139/139 129/129/129
f 133/133/133 139/139/139 131/131/131
f 135/135/135 139/139/139 133/133/133
f 137/137/137 139/139/139 135/135/135
f 128/128/128 139/139/139 137/137/137
