g Wires_Snipped_5_L(Clone) 0
v 0.004691887 0.002823158 -0.0002234459
v 0.007062008 0.004940213 -0.0007876396
v 0.005213211 0.006053303 -0.001929855
v 0.00175462 0.003894264 -0.001392746
v 0.01063304 0.007545689 -0.003425312
v 0.0118978 0.006526344 -0.002828503
v 0.00320797 0.007204106 -0.001826096
v -0.001197098 0.004785588 -0.001463699
v 0.009188889 0.008697269 -0.002482128
v 0.002148392 0.007674702 -0.000379467
v -0.002422192 0.005044098 -0.0002383232
v 0.00836258 0.009258019 -0.0005048752
v 0.002608631 0.006899632 0.001730442
v -0.001915455 0.00467778 0.001715374
v 0.008504914 0.008712495 0.001457119
v 0.004439404 0.005781883 0.002973938
v 0.0007345696 0.00397982 0.002895832
v 0.009594682 0.007593243 0.002201557
v 0.006592988 0.004911492 0.002579784
v 0.003713703 0.003237541 0.002735615
v 0 0 0.003057671
v 0.003299522 0.0002978211 0.003001404
v 0.01111474 0.006506001 0.001155663
v 0.005247834 0.002781422 0.001413822
v 0.005091049 0.000231411 0.001688862
v 0.007619049 0.004586327 0.00101614
v 0.0121273 0.00614555 -0.0009749413
v 0.007062008 0.004940213 -0.0007876396
v 0.004691887 0.002823158 -0.0002234459
v 0.0118978 0.006526344 -0.002828503
v 0.0176085 0.007330048 -0.003917217
v 0.01767631 0.008025639 -0.005687619
v 0.01694508 0.007754464 -0.001898384
v 0.01612673 0.009418023 -0.0007311821
v 0.004681874 -0.0002871552 4.854202E-05
v 0.02187476 0.007506577 -0.007351018
v 0.02164765 0.006865753 -0.005555153
v 0.02150226 0.007227063 -0.003667164
v 0.0218472 0.008532376 -0.002634144
v 0.01552043 0.01067717 -0.001086331
v 0.01548386 0.01120494 -0.002850342
v 0.01624226 0.0106779 -0.005023861
v 0.01720705 0.009375 -0.006199455
v 0.01767631 0.008025639 -0.005687619
v 0.02265144 0.009629124 -0.002918244
v 0.02313719 0.01006694 -0.004524899
v 0.02293291 0.009617344 -0.006554604
v 0.02241116 0.008606945 -0.007802677
v 0.02187476 0.007506577 -0.007351018
v 0.02806282 0.008011712 -0.005229759
v 0.02741675 0.007549061 -0.003641606
v 0.03073712 0.006299065 -0.003759098
v 0.02960477 0.00527752 -0.003258229
v 0.03235092 0.004245804 -0.002428246
v 0.03340893 0.005352047 -0.003014946
v 0.03169771 0.003263664 -0.003150082
v 0.02885261 0.004353691 -0.004056549
v 0.03185592 0.002905392 -0.004747486
v 0.02887287 0.004033692 -0.005715942
v 0.03278227 0.00336715 -0.006259346
v 0.02953773 0.004490822 -0.007312394
v 0.03155084 0.006809433 -0.005341435
v 0.03430557 0.00590242 -0.00456295
v 0.03150759 0.006417126 -0.007030869
v 0.03453799 0.00547543 -0.006129074
v 0.03063884 0.005419251 -0.007856179
v 0.03391953 0.004397206 -0.006815243
v 0.02953773 0.004490822 -0.007312394
v 0.03278227 0.00336715 -0.006259346
v 0.03604465 0.002147118 -0.001188564
v 0.03710923 0.002657318 -0.002640152
v 0.03788958 -0.003006676 0.002217484
v 0.03933978 -0.002608708 0.000617218
v 0.03733344 0.002309567 -0.004218102
v 0.03962326 -0.002842396 -0.001417255
v 0.03656287 0.001353649 -0.005035687
v 0.03863163 -0.0034483 -0.00276432
v 0.0352221 0.0003777771 -0.004630375
v 0.03723712 -0.003937618 -0.002575684
v 0.03624702 -0.003538395 0.002486229
v 0.03476544 0.001133427 -0.0007044792
v 0.03540516 -0.003849346 0.001160908
v 0.03394985 0.0002231407 -0.001532745
v 0.03592577 -0.004140431 -0.0009177208
v 0.03412142 -0.0001007957 -0.00317812
v 0.03723712 -0.003937618 -0.002575684
v 0.0352221 0.0003777771 -0.004630375
v 0.03911667 -0.01013114 0.005624581
v 0.03706665 -0.01074614 0.005417061
v 0.03586121 -0.01101571 0.003915596
v 0.03659048 -0.01103724 0.002070999
v 0.03847709 -0.01060871 0.0009223939
v 0.04114857 -0.01708663 0.003419209
v 0.04010449 -0.01803802 0.004953862
v 0.03925128 -0.01800634 0.006960678
v 0.04028411 -0.01760551 0.008370019
v 0.04158096 -0.01654814 0.008342076
v 0.0436666 -0.02006732 0.008919144
v 0.04592438 -0.0192701 0.008777047
v 0.04257923 -0.01543822 0.006980515
v 0.04090963 -0.009531155 0.004594803
v 0.04145465 -0.009459271 0.002813149
v 0.04043107 -0.009948647 0.001228046
v 0.03847709 -0.01060871 0.0009223939
v 0.04280568 -0.01511139 0.005006409
v 0.04212756 -0.01582656 0.003419209
v 0.04114857 -0.01708663 0.003419209
v 0.04759388 -0.01864014 0.007397366
v 0.04685912 -0.01947898 0.004293537
v 0.04480958 -0.02043047 0.00432415
v 0.04790993 -0.01863832 0.005592251
v 0.004681874 -0.0002871552 4.854202E-05
v 0.001622295 -0.0004188385 -0.00113287
v -0.001794769 -0.00028442 -0.001251793
v -0.003587437 -0.000373745 0
v -0.002910996 -0.0002790146 0.001896095
v 0.04228959 -0.02062213 0.007668496
v 0.04314776 -0.0207608 0.005776215
v 0.04480958 -0.02043047 0.00432415
v 0.02613597 0.006613926 -0.003301239
v 0.02521672 0.005679585 -0.004263115
v 0.02500806 0.005441159 -0.006071949
v 0.02525878 0.005999089 -0.007805348
v 0.02525878 0.005999089 -0.007805348
v 0.02627569 0.006866017 -0.008255673
v 0.02751203 0.007705017 -0.007126809
v 0.04685912 -0.01947898 0.004293537
v 0.04480958 -0.02043047 0.00432415
v 0.04523182 -0.01975878 0.006621456
v 0.04314776 -0.0207608 0.005776215
v 0.04228959 -0.02062213 0.007668496
v 0.0436666 -0.02006732 0.008919144
v 0.04592438 -0.0192701 0.008777047
v 0.04790993 -0.01863832 0.005592251
v 0.04759388 -0.01864014 0.007397366
v 0.04462843 -0.01977128 0.005502319
v 0.04864836 -0.02457737 0.005502319
v 0.04963961 -0.02374826 0.005502319
v 0.04561973 -0.01894217 0.005502319
v 0.05013533 -0.02333365 0.006621456
v 0.0461154 -0.01852756 0.006621456
v 0.04963965 -0.02374822 0.007740594
v 0.04561977 -0.01894213 0.007740594
v 0.04864841 -0.02457733 0.007740594
v 0.04462848 -0.01977124 0.007740594
v 0.04815273 -0.02499194 0.006621456
v 0.04413281 -0.02018585 0.006621456
v 0.04914403 -0.0241628 0.006621456
vt 0.4997664 0.4540832
vt 0.4997664 0.4087836
vt 0.4920123 0.4087836
vt 0.4920123 0.4540832
vt 0.4920123 0.363484
vt 0.4997664 0.363484
vt 0.4842582 0.4087836
vt 0.4842582 0.4540832
vt 0.4842582 0.363484
vt 0.4765041 0.4087836
vt 0.4765041 0.4540832
vt 0.4765041 0.363484
vt 0.46875 0.4087836
vt 0.46875 0.4540832
vt 0.46875 0.363484
vt 0.4609959 0.4087836
vt 0.4609959 0.4540832
vt 0.4609959 0.363484
vt 0.4532418 0.4087836
vt 0.4532418 0.4540832
vt 0.4609959 0.4993828
vt 0.4532418 0.4993828
vt 0.4532418 0.363484
vt 0.4454877 0.4540832
vt 0.4454877 0.4993828
vt 0.4454877 0.4087836
vt 0.4454877 0.363484
vt 0.4377337 0.4087836
vt 0.4377337 0.4540832
vt 0.4377337 0.363484
vt 0.4454877 0.3408342
vt 0.4377337 0.3408342
vt 0.4532418 0.3408342
vt 0.4609959 0.3408342
vt 0.4377337 0.4993828
vt 0.4377337 0.3295093
vt 0.4454877 0.3295093
vt 0.4532418 0.3295093
vt 0.4609959 0.3295093
vt 0.46875 0.3408342
vt 0.4765041 0.3408342
vt 0.4842582 0.3408342
vt 0.4920123 0.3408342
vt 0.4997664 0.3408342
vt 0.46875 0.3295093
vt 0.4765041 0.3295093
vt 0.4842582 0.3295093
vt 0.4920123 0.3295093
vt 0.4997664 0.3295093
vt 0.4765041 0.3181844
vt 0.46875 0.3181844
vt 0.46875 0.3068595
vt 0.4609959 0.3068595
vt 0.4609959 0.2955346
vt 0.46875 0.2955346
vt 0.4532418 0.2955346
vt 0.4532418 0.3068595
vt 0.4454877 0.2955346
vt 0.4454877 0.3068595
vt 0.4377337 0.2955346
vt 0.4377337 0.3068595
vt 0.4765041 0.3068595
vt 0.4765041 0.2955346
vt 0.4842582 0.3068595
vt 0.4842582 0.2955346
vt 0.4920123 0.3068595
vt 0.4920123 0.2955346
vt 0.4997664 0.3068595
vt 0.4997664 0.2955346
vt 0.46875 0.2842097
vt 0.4765041 0.2842097
vt 0.46875 0.2728848
vt 0.4765041 0.2728848
vt 0.4842582 0.2842097
vt 0.4842582 0.2728848
vt 0.4920123 0.2842097
vt 0.4920123 0.2728848
vt 0.4997664 0.2842097
vt 0.4997664 0.2728848
vt 0.4609959 0.2728848
vt 0.4609959 0.2842097
vt 0.4532418 0.2728848
vt 0.4532418 0.2842097
vt 0.4454877 0.2728848
vt 0.4454877 0.2842097
vt 0.4377337 0.2728848
vt 0.4377337 0.2842097
vt 0.46875 0.2615598
vt 0.4609959 0.2615598
vt 0.4532418 0.2615598
vt 0.4454877 0.2615598
vt 0.4377337 0.2615598
vt 0.4377337 0.250235
vt 0.4454877 0.250235
vt 0.4532418 0.250235
vt 0.4609959 0.250235
vt 0.46875 0.250235
vt 0.4609959 0.23891
vt 0.46875 0.23891
vt 0.4765041 0.250235
vt 0.4765041 0.2615598
vt 0.4842582 0.2615598
vt 0.4920123 0.2615598
vt 0.4997664 0.2615598
vt 0.4842582 0.250235
vt 0.4920123 0.250235
vt 0.4997664 0.250235
vt 0.4765041 0.23891
vt 0.4920123 0.23891
vt 0.4997664 0.23891
vt 0.4842582 0.23891
vt 0.4997664 0.4993828
vt 0.4920123 0.4993828
vt 0.4842582 0.4993828
vt 0.4765041 0.4993828
vt 0.46875 0.4993828
vt 0.4532418 0.23891
vt 0.4454877 0.23891
vt 0.4377337 0.23891
vt 0.4609959 0.3181844
vt 0.4532418 0.3181844
vt 0.4454877 0.3181844
vt 0.4377337 0.3181844
vt 0.4997664 0.3181844
vt 0.4920123 0.3181844
vt 0.4842582 0.3181844
vt 0.4581362 0.1854346
vt 0.4574825 0.2646013
vt 0.4687495 0.2440118
vt 0.4642174 0.3263022
vt 0.4734765 0.3567475
vt 0.4800165 0.3075944
vt 0.4800165 0.2234223
vt 0.4651207 0.1432545
vt 0.4738654 0.157714
vt 0.5025007 0.530713
vt 0.5021183 0.5295631
vt 0.5014154 0.5295631
vt 0.5010331 0.530713
vt 0.5010639 0.5282356
vt 0.5002992 0.5282356
vt 0.5014154 0.5269082
vt 0.501033 0.5257583
vt 0.5021182 0.5269082
vt 0.5025006 0.5257583
vt 0.5024697 0.5282356
vt 0.5032345 0.5282356
vt 0.5017669 0.5282356
vn 0.333749 -0.6093839 -0.71921
vn 0.1830916 -0.7788612 -0.5998774
vn -0.03885918 -0.2622902 -0.9642063
vn 0.02455098 -0.2283423 -0.9732713
vn -0.2852391 -0.1819398 -0.9410295
vn -0.01543951 -0.8258716 -0.5636467
vn -0.2435176 0.5190352 -0.8193299
vn -0.3535438 0.5166283 -0.7798088
vn -0.3474576 0.6556866 -0.6703345
vn -0.3789117 0.9252169 -0.01999068
vn -0.7298679 0.6631004 0.1661046
vn -0.2574148 0.9662891 0.004791073
vn -0.2887667 0.7597629 0.5825582
vn -0.61336 0.4479923 0.6504556
vn -0.1095928 0.798438 0.5920188
vn -0.04594371 0.2969608 0.9537838
vn -0.2859694 0.2717414 0.9189005
vn 0.2142894 0.226921 0.9500457
vn 0.3462782 -0.4066411 0.8454196
vn 0.03831755 0.05529899 0.9977343
vn 0.03831755 0.05529898 0.9977343
vn 0.03831755 0.05529899 0.9977343
vn 0.4585353 -0.5295106 0.7136973
vn 0.6220734 0.01242523 0.7828605
vn 0.6220734 0.01242523 0.7828604
vn 0.4379049 -0.8905568 0.1230765
vn 0.2812262 -0.9588487 0.03900038
vn 0.1830916 -0.7788612 -0.5998774
vn 0.333749 -0.6093839 -0.71921
vn -0.01543951 -0.8258716 -0.5636467
vn 0.03350018 -0.9969268 -0.07081395
vn -0.2136255 -0.7313002 -0.6477377
vn 0.3182842 -0.7201931 0.6164552
vn 0.3530963 0.03012995 0.9351017
vn 0.353952 -0.07358715 -0.9323642
vn -0.3541558 -0.6372623 -0.6844489
vn -0.2907279 -0.9493514 -0.1192032
vn -0.06154817 -0.8411943 0.5372189
vn 0.1895416 -0.2111513 0.9588999
vn 0.08368404 0.8242213 0.5600502
vn -0.1027402 0.993847 -0.0413848
vn -0.1895023 0.8112656 -0.5531157
vn -0.2740327 0.178767 -0.9449595
vn -0.2136255 -0.7313002 -0.6477377
vn 0.2944522 0.7228229 0.6251599
vn 0.258042 0.9659346 0.01961463
vn 0.1562776 0.8856729 -0.4372196
vn -0.0814878 0.3973885 -0.9140253
vn -0.3541558 -0.6372623 -0.6844489
vn 0.3628613 0.930877 0.04242401
vn 0.315453 0.6389951 0.7015516
vn 0.1694064 0.7302756 0.6618149
vn -0.1497729 -0.04720317 0.987593
vn -0.2781164 0.2419819 0.9295676
vn 0.215627 0.7029948 0.6777193
vn -0.6850306 -0.5470899 0.4810673
vn -0.3641197 -0.8003766 0.47625
vn -0.5105429 -0.8252393 -0.2415076
vn -0.3137031 -0.9399981 -0.1341414
vn -0.1423897 -0.6762783 -0.7227537
vn -0.1432629 -0.7484753 -0.6475033
vn 0.3091227 0.9492438 0.05813304
vn 0.5248242 0.8296351 0.1904343
vn 0.3447239 0.7497447 -0.5648436
vn 0.6499314 0.5876998 -0.4818693
vn 0.1823651 0.01867859 -0.9830534
vn 0.3463395 -0.1208842 -0.9302881
vn -0.1432629 -0.7484753 -0.6475033
vn -0.1423897 -0.6762783 -0.7227537
vn 0.3031522 0.6112346 0.7310889
vn 0.7297571 0.6105527 0.3077013
vn 0.2380058 0.5166047 0.8224797
vn 0.7540634 0.4902398 0.4370965
vn 0.8745647 0.3472756 -0.3384321
vn 0.9514161 0.1778161 -0.2513739
vn 0.4582663 -0.1891608 -0.8684528
vn 0.5302855 -0.260677 -0.8067495
vn -0.2635336 -0.5638857 -0.7826768
vn -0.2267081 -0.5020582 -0.8345904
vn -0.450584 0.3423471 0.8244832
vn -0.3756471 0.3532135 0.8568135
vn -0.9821522 -0.08170155 0.1694165
vn -0.9119372 -0.2809514 0.2990597
vn -0.772042 -0.4114532 -0.4844144
vn -0.7276537 -0.5920662 -0.3463778
vn -0.2267081 -0.5020582 -0.8345904
vn -0.2635336 -0.5638857 -0.7826768
vn 0.1201668 0.4274149 0.8960338
vn -0.5360965 0.1805131 0.8246306
vn -0.9669266 -0.2302956 0.1096218
vn -0.7377609 -0.4224963 -0.5265032
vn -0.2143955 -0.452645 -0.8655329
vn -0.2190111 -0.4397594 -0.8710028
vn -0.6233743 -0.6107978 -0.4881909
vn -0.8582663 -0.4760998 0.1915933
vn -0.4602196 -0.0236875 0.887489
vn 0.06705297 0.3941121 0.916613
vn -0.1921238 -0.04961949 0.9801154
vn 0.2489898 0.523068 0.8151099
vn 0.5376559 0.6157501 0.5760017
vn 0.6964054 0.4465427 0.5617999
vn 0.9719822 0.1860622 -0.1436365
vn 0.6037577 -0.2162836 -0.7672666
vn -0.2143955 -0.452645 -0.8655329
vn 0.841065 0.5044579 -0.195274
vn 0.4917938 0.01452069 -0.8705906
vn -0.2190111 -0.4397594 -0.8710028
vn 0.4777602 0.7858288 0.3927065
vn 0.4096805 0.3654961 -0.8358077
vn -0.1060314 -0.3555144 -0.9286371
vn 0.578236 0.7870021 -0.2151064
vn 0.353952 -0.07358715 -0.9323642
vn 0.3539521 -0.07358716 -0.9323642
vn 0.02141154 -0.05186671 -0.9984244
vn -0.6303536 0.07277758 -0.7728892
vn -0.7177325 0.172591 0.6745905
vn -0.6496429 -0.7261801 0.2250035
vn -0.5041484 -0.7070335 -0.4959215
vn -0.1060314 -0.3555144 -0.9286371
vn -0.0128124 -0.2466473 0.9690206
vn -0.2936961 -0.8294592 0.475121
vn -0.3633037 -0.9240445 -0.1189628
vn -0.2900588 -0.6910979 -0.6620043
vn -0.2900588 -0.6910979 -0.6620043
vn 0.08487538 0.2265354 -0.9702978
vn 0.2965063 0.8142354 -0.4991038
vn 0.4323931 -0.8800165 0.196487
vn 0.3904864 -0.9004687 0.191511
vn 0.3778278 -0.914645 0.1437728
vn 0.3509645 -0.9113607 0.2150476
vn 0.3258327 -0.9341943 0.1453064
vn 0.3186514 -0.9435546 0.09036552
vn 0.3710042 -0.9242274 0.09032984
vn 0.4280472 -0.8924997 0.1421962
vn 0.4072874 -0.9104051 0.07266096
vn -0.3835209 -0.3207858 -0.8660302
vn -0.3386133 -0.3726417 -0.8639902
vn 0.4266106 0.2674077 -0.8640003
vn 0.3835085 0.3207735 -0.8660402
vn 0.8092545 0.5874581 -2.589842E-05
vn 0.7670563 0.6415798 -2.723051E-05
vn 0.4266188 0.2674141 0.8639942
vn 0.3835175 0.3207809 0.8660335
vn -0.3386045 -0.3726338 0.8639972
vn -0.3835125 -0.3207787 0.8660365
vn -0.7212425 -0.6926827 2.600953E-05
vn -0.7670544 -0.641582 2.497892E-05
vn 0.6415833 -0.7670535 -1.978201E-06
g Wires_Snipped_5_L(Clone) 0_0
f 3/3/3 2/2/2 1/1/1
f 4/4/4 3/3/3 1/1/1
f 3/3/3 5/5/5 2/2/2
f 5/5/5 6/6/6 2/2/2
f 7/7/7 3/3/3 4/4/4
f 8/8/8 7/7/7 4/4/4
f 9/9/9 5/5/5 3/3/3
f 7/7/7 9/9/9 3/3/3
f 10/10/10 7/7/7 8/8/8
f 11/11/11 10/10/10 8/8/8
f 12/12/12 9/9/9 7/7/7
f 10/10/10 12/12/12 7/7/7
f 13/13/13 10/10/10 11/11/11
f 14/14/14 13/13/13 11/11/11
f 15/15/15 12/12/12 10/10/10
f 13/13/13 15/15/15 10/10/10
f 16/16/16 13/13/13 14/14/14
f 17/17/17 16/16/16 14/14/14
f 18/18/18 15/15/15 13/13/13
f 16/16/16 18/18/18 13/13/13
f 19/19/19 16/16/16 17/17/17
f 20/20/20 19/19/19 17/17/17
f 20/20/20 17/17/17 21/21/21
f 22/22/22 20/20/20 21/21/21
f 23/23/23 18/18/18 16/16/16
f 19/19/19 23/23/23 16/16/16
f 24/24/24 20/20/20 22/22/22
f 25/25/25 24/24/24 22/22/22
f 26/26/26 19/19/19 20/20/20
f 24/24/24 26/26/26 20/20/20
f 27/27/27 23/23/23 19/19/19
f 26/26/26 27/27/27 19/19/19
f 28/28/28 26/26/26 24/24/24
f 29/29/29 28/28/28 24/24/24
f 29/29/29 24/24/24 25/25/25
f 30/30/30 27/27/27 26/26/26
f 28/28/28 30/30/30 26/26/26
f 27/27/27 30/30/30 31/31/31
f 27/27/27 31/31/31 23/23/23
f 30/30/30 32/32/32 31/31/31
f 23/23/23 33/33/33 18/18/18
f 31/31/31 33/33/33 23/23/23
f 33/33/33 34/34/34 18/18/18
f 35/35/35 29/29/29 25/25/25
f 32/32/32 36/36/36 31/31/31
f 36/36/36 37/37/37 31/31/31
f 31/31/31 37/37/37 38/38/38
f 33/33/33 31/31/31 38/38/38
f 33/33/33 38/38/38 39/39/39
f 34/34/34 33/33/33 39/39/39
f 40/40/40 34/34/34 39/39/39
f 34/34/34 40/40/40 15/15/15
f 15/15/15 40/40/40 12/12/12
f 40/40/40 41/41/41 12/12/12
f 12/12/12 41/41/41 9/9/9
f 41/41/41 42/42/42 9/9/9
f 9/9/9 42/42/42 5/5/5
f 42/42/42 43/43/43 5/5/5
f 5/5/5 43/43/43 6/6/6
f 43/43/43 44/44/44 6/6/6
f 18/18/18 34/34/34 15/15/15
f 45/45/45 40/40/40 39/39/39
f 40/40/40 45/45/45 46/46/46
f 41/41/41 40/40/40 46/46/46
f 41/41/41 46/46/46 47/47/47
f 42/42/42 41/41/41 47/47/47
f 42/42/42 47/47/47 48/48/48
f 43/43/43 42/42/42 48/48/48
f 43/43/43 48/48/48 49/49/49
f 44/44/44 43/43/43 49/49/49
f 46/46/46 45/45/45 50/50/50
f 45/45/45 51/51/51 50/50/50
f 51/51/51 52/52/52 50/50/50
f 53/53/53 52/52/52 51/51/51
f 53/53/53 54/54/54 52/52/52
f 54/54/54 55/55/55 52/52/52
f 56/56/56 54/54/54 53/53/53
f 57/57/57 56/56/56 53/53/53
f 58/58/58 56/56/56 57/57/57
f 59/59/59 58/58/58 57/57/57
f 60/60/60 58/58/58 59/59/59
f 61/61/61 60/60/60 59/59/59
f 52/52/52 55/55/55 62/62/62
f 52/52/52 62/62/62 50/50/50
f 55/55/55 63/63/63 62/62/62
f 62/62/62 63/63/63 64/64/64
f 63/63/63 65/65/65 64/64/64
f 64/64/64 65/65/65 66/66/66
f 65/65/65 67/67/67 66/66/66
f 66/66/66 67/67/67 68/68/68
f 67/67/67 69/69/69 68/68/68
f 55/55/55 70/70/70 63/63/63
f 70/70/70 71/71/71 63/63/63
f 63/63/63 71/71/71 65/65/65
f 70/70/70 72/72/72 71/71/71
f 72/72/72 73/73/73 71/71/71
f 71/71/71 73/73/73 74/74/74
f 65/65/65 74/74/74 67/67/67
f 71/71/71 74/74/74 65/65/65
f 73/73/73 75/75/75 74/74/74
f 74/74/74 75/75/75 76/76/76
f 67/67/67 76/76/76 69/69/69
f 74/74/74 76/76/76 67/67/67
f 75/75/75 77/77/77 76/76/76
f 76/76/76 77/77/77 78/78/78
f 76/76/76 78/78/78 69/69/69
f 77/77/77 79/79/79 78/78/78
f 80/80/80 72/72/72 70/70/70
f 81/81/81 80/80/80 70/70/70
f 82/82/82 80/80/80 81/81/81
f 83/83/83 82/82/82 81/81/81
f 84/84/84 82/82/82 83/83/83
f 85/85/85 84/84/84 83/83/83
f 86/86/86 84/84/84 85/85/85
f 87/87/87 86/86/86 85/85/85
f 72/72/72 88/88/88 73/73/73
f 89/89/89 88/88/88 72/72/72
f 80/80/80 89/89/89 72/72/72
f 90/90/90 89/89/89 80/80/80
f 82/82/82 90/90/90 80/80/80
f 91/91/91 90/90/90 82/82/82
f 84/84/84 91/91/91 82/82/82
f 92/92/92 91/91/91 84/84/84
f 86/86/86 92/92/92 84/84/84
f 83/83/83 81/81/81 54/54/54
f 54/54/54 81/81/81 55/55/55
f 81/81/81 70/70/70 55/55/55
f 56/56/56 83/83/83 54/54/54
f 85/85/85 83/83/83 56/56/56
f 58/58/58 85/85/85 56/56/56
f 87/87/87 85/85/85 58/58/58
f 60/60/60 87/87/87 58/58/58
f 92/92/92 93/93/93 91/91/91
f 93/93/93 94/94/94 91/91/91
f 91/91/91 94/94/94 90/90/90
f 94/94/94 95/95/95 90/90/90
f 90/90/90 95/95/95 89/89/89
f 95/95/95 96/96/96 89/89/89
f 89/89/89 96/96/96 88/88/88
f 96/96/96 97/97/97 88/88/88
f 96/96/96 98/98/98 97/97/97
f 98/98/98 99/99/99 97/97/97
f 97/97/97 99/99/99 100/100/100
f 97/97/97 100/100/100 101/101/101
f 88/88/88 97/97/97 101/101/101
f 88/88/88 101/101/101 73/73/73
f 73/73/73 101/101/101 75/75/75
f 101/101/101 102/102/102 75/75/75
f 101/101/101 100/100/100 102/102/102
f 75/75/75 102/102/102 77/77/77
f 102/102/102 103/103/103 77/77/77
f 77/77/77 103/103/103 79/79/79
f 103/103/103 104/104/104 79/79/79
f 100/100/100 105/105/105 102/102/102
f 102/102/102 105/105/105 103/103/103
f 105/105/105 106/106/106 103/103/103
f 103/103/103 106/106/106 104/104/104
f 106/106/106 107/107/107 104/104/104
f 99/99/99 108/108/108 100/100/100
f 100/100/100 108/108/108 105/105/105
f 106/106/106 109/109/109 107/107/107
f 109/109/109 110/110/110 107/107/107
f 111/111/111 109/109/109 106/106/106
f 105/105/105 111/111/111 106/106/106
f 108/108/108 111/111/111 105/105/105
f 4/4/4 1/1/1 112/112/112
f 113/113/113 4/4/4 112/112/112
f 8/8/8 4/4/4 113/113/113
f 114/114/114 8/8/8 113/113/113
f 11/11/11 8/8/8 114/114/114
f 115/115/115 11/11/11 114/114/114
f 14/14/14 11/11/11 115/115/115
f 116/116/116 14/14/14 115/115/115
f 17/17/17 14/14/14 116/116/116
f 21/21/21 17/17/17 116/116/116
f 117/117/117 98/98/98 96/96/96
f 95/95/95 117/117/117 96/96/96
f 118/118/118 117/117/117 95/95/95
f 94/94/94 118/118/118 95/95/95
f 119/119/119 118/118/118 94/94/94
f 93/93/93 119/119/119 94/94/94
f 120/120/120 53/53/53 51/51/51
f 57/57/57 53/53/53 120/120/120
f 121/121/121 57/57/57 120/120/120
f 59/59/59 57/57/57 121/121/121
f 122/122/122 59/59/59 121/121/121
f 61/61/61 59/59/59 122/122/122
f 123/123/123 61/61/61 122/122/122
f 123/123/123 122/122/122 37/37/37
f 37/37/37 122/122/122 121/121/121
f 36/36/36 123/123/123 37/37/37
f 38/38/38 37/37/37 121/121/121
f 38/38/38 121/121/121 120/120/120
f 39/39/39 38/38/38 120/120/120
f 39/39/39 120/120/120 51/51/51
f 45/45/45 39/39/39 51/51/51
f 66/66/66 68/68/68 124/124/124
f 125/125/125 66/66/66 124/124/124
f 64/64/64 66/66/66 125/125/125
f 126/126/126 64/64/64 125/125/125
f 62/62/62 64/64/64 126/126/126
f 50/50/50 62/62/62 126/126/126
f 46/46/46 50/50/50 126/126/126
f 47/47/47 46/46/46 126/126/126
f 47/47/47 126/126/126 125/125/125
f 48/48/48 47/47/47 125/125/125
f 48/48/48 125/125/125 124/124/124
f 49/49/49 48/48/48 124/124/124
f 129/129/129 128/128/128 127/127/127
f 130/130/130 128/128/128 129/129/129
f 131/131/131 130/130/130 129/129/129
f 132/132/132 131/131/131 129/129/129
f 132/132/132 129/129/129 133/133/133
f 129/129/129 127/127/127 134/134/134
f 129/129/129 134/134/134 135/135/135
f 129/129/129 135/135/135 133/133/133
g Wires_Snipped_5_L(Clone) 0_1
f 138/138/138 137/137/137 136/136/136
f 139/139/139 138/138/138 136/136/136
f 140/140/140 138/138/138 139/139/139
f 141/141/141 140/140/140 139/139/139
f 142/142/142 140/140/140 141/141/141
f 143/143/143 142/142/142 141/141/141
f 144/144/144 142/142/142 143/143/143
f 145/145/145 144/144/144 143/143/143
f 146/146/146 144/144/144 145/145/145
f 147/147/147 146/146/146 145/145/145
f 137/137/137 146/146/146 147/147/147
f 136/136/136 137/137/137 147/147/147
f 138/138/138 148/148/148 137/137/137
f 140/140/140 148/148/148 138/138/138
f 142/142/142 148/148/148 140/140/140
f 144/144/144 148/148/148 142/142/142
f 146/146/146 148/148/148 144/144/144
f 137/137/137 148/148/148 146/146/146
