g btnLight16
v 0.012744 0.00166 0.007358
v 0.01386 -0.00166 0.008002
v 0.008002 -0.00166 0.01386
v 0.007358 0.00166 0.012744
v 0.014715 0.00166 0
v 0.016005 -0.00166 0
v 0.012744 0.00166 -0.007358
v 0.01386 -0.00166 -0.008002
v 0.007358 0.00166 -0.012744
v 0.008002 -0.00166 -0.01386
v 0 0.00166 -0.014715
v 0 -0.00166 -0.016005
v -0.007358 0.00166 -0.012744
v -0.008002 -0.00166 -0.01386
v -0.012744 0.00166 -0.007358
v -0.01386 -0.00166 -0.008002
v -0.014715 0.00166 0
v -0.016005 -0.00166 0
v -0.012744 0.00166 0.007358
v -0.01386 -0.00166 0.008002
v -0.007358 0.00166 0.012744
v -0.008002 -0.00166 0.01386
v 0 0.00166 0.014715
v 0 -0.00166 0.016005
vt 0.887319 0.606695
vt 0.993553 0.633496
vt 0.99488 0.368693
vt 0.889645 0.399624
vt 0.776774 0.783757
vt 0.856069 0.859916
vt 0.597597 0.890463
vt 0.629689 0.99505
vt 0.390626 0.888449
vt 0.364796 0.99505
vt 0.212461 0.782899
vt 0.136133 0.861499
vt 0.114393 0.598632
vt 0.008789 0.629225
vt 0.111571 0.390108
vt 0.00495 0.365607
vt 0.216801 0.211873
vt 0.137396 0.136203
vt 0.397292 0.110352
vt 0.367386 0.00495
vt 0.605906 0.117556
vt 0.632213 0.010804
vt 0.787904 0.219374
vt 0.862433 0.139289
vn 0.5389117 0.7827918 0.311145
vn 0.8072623 0.3620822 0.4660732
vn 0.4660729 0.3620809 0.8072629
vn 0.311145 0.7827918 0.5389117
vn 0.6222876 0.7827886 0
vn 0.9321462 0.3620821 0
vn 0.5389117 0.7827918 -0.311145
vn 0.8072625 0.3620812 -0.4660733
vn 0.311145 0.7827918 -0.5389117
vn 0.4660729 0.3620809 -0.8072629
vn 0 0.7827886 -0.6222876
vn 0 0.36208 -0.932147
vn -0.311145 0.7827918 -0.5389117
vn -0.4660731 0.3620801 -0.8072633
vn -0.5389117 0.7827918 -0.311145
vn -0.8072629 0.3620809 -0.4660729
vn -0.6222876 0.7827886 0
vn -0.9321462 0.3620821 0
vn -0.5389117 0.7827918 0.311145
vn -0.8072623 0.3620822 0.4660732
vn -0.311145 0.7827918 0.5389117
vn -0.4660729 0.3620809 0.8072629
vn 0 0.7827886 0.6222876
vn 0 0.36208 0.932147
g btnLight16_0
f 3/3/3 2/2/2 1/1/1
f 4/4/4 3/3/3 1/1/1
f 1/1/1 2/2/2 5/5/5
f 1/1/1 5/5/5 4/4/4
f 2/2/2 6/6/6 5/5/5
f 5/5/5 6/6/6 7/7/7
f 6/6/6 8/8/8 7/7/7
f 7/7/7 8/8/8 9/9/9
f 5/5/5 7/7/7 9/9/9
f 8/8/8 10/10/10 9/9/9
f 9/9/9 10/10/10 11/11/11
f 10/10/10 12/12/12 11/11/11
f 11/11/11 12/12/12 13/13/13
f 9/9/9 11/11/11 13/13/13
f 9/9/9 13/13/13 5/5/5
f 12/12/12 14/14/14 13/13/13
f 13/13/13 14/14/14 15/15/15
f 14/14/14 16/16/16 15/15/15
f 15/15/15 16/16/16 17/17/17
f 13/13/13 15/15/15 17/17/17
f 16/16/16 18/18/18 17/17/17
f 17/17/17 18/18/18 19/19/19
f 18/18/18 20/20/20 19/19/19
f 19/19/19 20/20/20 21/21/21
f 17/17/17 19/19/19 21/21/21
f 21/21/21 13/13/13 17/17/17
f 20/20/20 22/22/22 21/21/21
f 21/21/21 22/22/22 23/23/23
f 22/22/22 24/24/24 23/23/23
f 23/23/23 24/24/24 4/4/4
f 4/4/4 21/21/21 23/23/23
f 24/24/24 3/3/3 4/4/4
f 5/5/5 21/21/21 4/4/4
f 5/5/5 13/13/13 21/21/21
