g parts(Clone) 0
v -0.07972298 0.02025824 0.008210881
v -0.07972298 0.02025824 -0.07316775
v 0.04088914 0.02025824 -0.07316775
v 0.04088914 0.02025824 0.008210881
v -0.08360509 0.01449862 0.01209299
v -0.07972298 0.02025824 0.008210881
v 0.04088914 0.02025824 0.008210881
v 0.04477125 0.01449862 0.01209299
v 0.04477125 0.01449862 0.01209299
v 0.04088914 0.02025824 0.008210881
v 0.04088914 0.02025824 -0.07316775
v 0.04477125 0.01449862 -0.07704986
v 0.04477125 0.01449862 -0.07704986
v 0.04088914 0.02025824 -0.07316775
v -0.07972298 0.02025824 -0.07316775
v -0.08360509 0.01449862 -0.07704986
v -0.08360509 0.01449862 -0.07704986
v -0.07972298 0.02025824 -0.07316775
v -0.07972298 0.02025824 0.008210881
v -0.08360509 0.01449862 0.01209299
v -0.05929849 0.02601788 0.002140224
v 0.02154747 0.02601788 0.002140224
v 0.02506269 0.02025825 0.005655448
v -0.06281376 0.02025825 0.005655448
v 0.02476401 0.02601788 -0.001076318
v 0.02476401 0.02601788 -0.06314765
v 0.02827919 0.02025825 -0.06666287
v 0.02827919 0.02025825 0.002438909
v 0.02154747 0.02601788 -0.06636419
v -0.05929849 0.02601788 -0.06636419
v -0.06281376 0.02025825 -0.06987941
v 0.02506269 0.02025825 -0.06987941
v -0.06251504 0.02601788 -0.06314765
v -0.06251504 0.02601788 -0.001076318
v -0.06603022 0.02025825 0.002438909
v -0.06603022 0.02025825 -0.06666287
v -0.05450626 0.02601788 -0.006626869
v -0.05450626 0.02601788 -0.05759709
v 0.01675525 0.02601788 -0.05759709
v 0.01675525 0.02601788 -0.006626869
v -0.05929849 0.02601788 0.002140224
v -0.06251504 0.02601788 -0.001076318
v 0.02154747 0.02601788 0.002140224
v 0.02476401 0.02601788 -0.001076318
v 0.02476401 0.02601788 -0.06314765
v 0.02154747 0.02601788 -0.06636419
v -0.05929849 0.02601788 -0.06636419
v -0.06251504 0.02601788 -0.06314765
v -0.06603022 0.02025825 0.002438909
v -0.06251504 0.02601788 -0.001076318
v -0.05929849 0.02601788 0.002140224
v -0.06281376 0.02025825 0.005655448
v 0.02506269 0.02025825 0.005655448
v 0.02154747 0.02601788 0.002140224
v 0.02476401 0.02601788 -0.001076318
v 0.02827919 0.02025825 0.002438909
v 0.02827919 0.02025825 -0.06666287
v 0.02476401 0.02601788 -0.06314765
v 0.02154747 0.02601788 -0.06636419
v 0.02506269 0.02025825 -0.06987941
v -0.06281376 0.02025825 -0.06987941
v -0.05929849 0.02601788 -0.06636419
v -0.06251504 0.02601788 -0.06314765
v -0.06603022 0.02025825 -0.06666287
v -0.07274569 0.02025825 -0.001181655
v -0.07320809 0.02141489 -0.000719268
v -0.07535094 0.02141489 -0.00160687
v -0.07535094 0.02025825 -0.002260784
v -0.07749385 0.02141489 -0.000719268
v -0.07795618 0.02025825 -0.001181655
v -0.07838143 0.02141489 0.001423593
v -0.07903531 0.02025825 0.001423593
v -0.07749385 0.02141489 0.003566454
v -0.07795618 0.02025825 0.004028841
v -0.07535094 0.02141489 0.004454056
v -0.07535094 0.02025825 0.00510797
v -0.07320809 0.02141489 0.003566455
v -0.07274569 0.02025825 0.004028841
v -0.0723205 0.02141489 0.001423593
v -0.07166656 0.02025825 0.001423593
v -0.07535094 0.02141489 0.001423593
v -0.07274569 0.02025825 -0.0708883
v -0.07320809 0.02141489 -0.07042591
v -0.07535094 0.02141489 -0.07131352
v -0.07535094 0.02025825 -0.07196743
v -0.07749385 0.02141489 -0.07042591
v -0.07795618 0.02025825 -0.0708883
v -0.07838143 0.02141489 -0.06828305
v -0.07903531 0.02025825 -0.06828305
v -0.07749385 0.02141489 -0.0661402
v -0.07795618 0.02025825 -0.06567781
v -0.07535094 0.02141489 -0.06525259
v -0.07535094 0.02025825 -0.06459868
v -0.07320809 0.02141489 -0.06614019
v -0.07274569 0.02025825 -0.06567781
v -0.0723205 0.02141489 -0.06828305
v -0.07166656 0.02025825 -0.06828305
v -0.07535094 0.02141489 -0.06828305
v 0.03888244 0.02025825 -0.0708883
v 0.03842004 0.02141489 -0.07042591
v 0.03627719 0.02141489 -0.07131352
v 0.03627719 0.02025825 -0.07196743
v 0.03413429 0.02141489 -0.07042591
v 0.03367194 0.02025825 -0.0708883
v 0.0332467 0.02141489 -0.06828305
v 0.03259281 0.02025825 -0.06828305
v 0.03413429 0.02141489 -0.0661402
v 0.03367194 0.02025825 -0.06567781
v 0.03627719 0.02141489 -0.06525259
v 0.03627719 0.02025825 -0.06459868
v 0.03842004 0.02141489 -0.06614019
v 0.03888244 0.02025825 -0.06567781
v 0.03930763 0.02141489 -0.06828305
v 0.03996157 0.02025825 -0.06828305
v 0.03627719 0.02141489 -0.06828305
v 0.03888244 0.02025825 -0.001181655
v 0.03842004 0.02141489 -0.000719268
v 0.03627719 0.02141489 -0.00160687
v 0.03627719 0.02025825 -0.002260784
v 0.03413429 0.02141489 -0.000719268
v 0.03367194 0.02025825 -0.001181655
v 0.0332467 0.02141489 0.001423593
v 0.03259281 0.02025825 0.001423593
v 0.03413429 0.02141489 0.003566454
v 0.03367194 0.02025825 0.004028841
v 0.03627719 0.02141489 0.004454056
v 0.03627719 0.02025825 0.00510797
v 0.03842004 0.02141489 0.003566455
v 0.03888244 0.02025825 0.004028841
v 0.03930763 0.02141489 0.001423593
v 0.03996157 0.02025825 0.001423593
v 0.03627719 0.02141489 0.001423593
v -0.01930008 0.01568441 0.02310176
v -0.01929786 0.01568441 0.04647419
v -0.07609676 0.01568441 0.04647803
v -0.07609676 0.01568441 0.02310176
v 0.0374966 0.01568441 0.02310176
v 0.0374966 0.01568441 0.04647803
v -0.01930008 0.01568441 0.06985429
v -0.07609676 0.01568441 0.06985429
v 0.0374966 0.01568441 0.06985429
v -0.01941696 0.01780784 0.07455127
v -0.01941696 0.01517179 0.07755128
v -0.0836051 0.01517179 0.07755128
v -0.08109614 0.01780784 0.07455127
v 0.04226222 0.01780784 0.07455127
v 0.04477119 0.01517179 0.07755128
v 0.04477119 0.01517179 0.04656243
v 0.04226222 0.01780784 0.04656243
v 0.04226222 0.01780784 0.01857359
v 0.04477119 0.01517179 0.01557359
v 0.04477119 0.01517179 0.07755128
v 0.04226222 0.01780784 0.07455127
v -0.01941696 0.01517179 0.01557359
v -0.01941696 0.01780784 0.01857359
v -0.08109614 0.01780784 0.01857359
v -0.0836051 0.01517179 0.01557359
v 0.04477119 0.01517179 0.01557359
v 0.04226222 0.01780784 0.01857359
v -0.0836051 0.01517179 0.01557359
v -0.08109614 0.01780784 0.01857359
v -0.08109614 0.01780784 0.04656243
v -0.0836051 0.01517179 0.04656243
v -0.0836051 0.01517179 0.07755128
v -0.08109614 0.01780784 0.07455127
v -0.01941699 0.01780784 0.0714296
v -0.01941696 0.01780784 0.07455127
v -0.08109614 0.01780784 0.07455127
v -0.07783636 0.01780784 0.0714296
v 0.03900239 0.01780784 0.0714296
v 0.04226222 0.01780784 0.07455127
v -0.07783636 0.01780784 0.04656243
v -0.08109614 0.01780784 0.04656243
v -0.08109614 0.01780784 0.01857359
v -0.07783636 0.01780784 0.02169527
v -0.01941699 0.01780784 0.02169527
v -0.01941696 0.01780784 0.01857359
v 0.03900239 0.01780784 0.02169527
v 0.04226222 0.01780784 0.01857359
v 0.03900239 0.01780784 0.04656243
v 0.04226222 0.01780784 0.04656243
v -0.07609676 0.01568441 0.06985429
v -0.01930008 0.01568441 0.06985429
v -0.01941699 0.01780784 0.0714296
v -0.07783636 0.01780784 0.0714296
v 0.03900239 0.01780784 0.0714296
v 0.0374966 0.01568441 0.06985429
v 0.03900239 0.01780784 0.04656243
v 0.0374966 0.01568441 0.04647803
v 0.0374966 0.01568441 0.02310176
v 0.03900239 0.01780784 0.02169527
v 0.03900239 0.01780784 0.0714296
v 0.0374966 0.01568441 0.06985429
v -0.07783636 0.01780784 0.02169527
v -0.01941699 0.01780784 0.02169527
v -0.01930008 0.01568441 0.02310176
v -0.07609676 0.01568441 0.02310176
v 0.0374966 0.01568441 0.02310176
v 0.03900239 0.01780784 0.02169527
v -0.07783636 0.01780784 0.02169527
v -0.07609676 0.01568441 0.02310176
v -0.07609676 0.01568441 0.04647803
v -0.07783636 0.01780784 0.04656243
v -0.07783636 0.01780784 0.0714296
v -0.07609676 0.01568441 0.06985429
vt 0.4355662 0.2403087
vt 0.4908846 0.2403087
vt 0.4908846 0.1905581
vt 0.4355662 0.1905581
vt 0.4275805 0.2485119
vt 0.4355662 0.2403087
vt 0.4355662 0.1905581
vt 0.4275805 0.1823549
vt 0.4275805 0.1823549
vt 0.4355662 0.1905581
vt 0.4908846 0.1905581
vt 0.4988702 0.1823549
vt 0.4988702 0.1823549
vt 0.4908846 0.1905581
vt 0.4908846 0.2403087
vt 0.4988702 0.2485119
vt 0.4988702 0.2485119
vt 0.4908846 0.2403087
vt 0.4355662 0.2403087
vt 0.4275805 0.2485119
vt 0.2707981 0.1059923
vt 0.4109573 0.1059878
vt 0.4204792 0.09751094
vt 0.2609312 0.09738999
vt 0.4177276 0.1110566
vt 0.4178521 0.2344342
vt 0.4280041 0.2423723
vt 0.4281286 0.1026203
vt 0.4105838 0.2392539
vt 0.2710285 0.2393996
vt 0.2609049 0.2480748
vt 0.4207284 0.2480748
vt 0.2636884 0.2344513
vt 0.2636915 0.1108075
vt 0.2535708 0.1044682
vt 0.2534463 0.2428704
vt 0.2829886 0.1181815
vt 0.2834867 0.22691
vt 0.3981081 0.22691
vt 0.3981081 0.1181815
vt 0.2707981 0.1059923
vt 0.2636915 0.1108075
vt 0.4109573 0.1059878
vt 0.4177276 0.1110566
vt 0.4178521 0.2344342
vt 0.4105838 0.2392539
vt 0.2710285 0.2393996
vt 0.2636884 0.2344513
vt 0.2535708 0.1044682
vt 0.2636915 0.1108075
vt 0.2707981 0.1059923
vt 0.2609312 0.09738999
vt 0.4204792 0.09751094
vt 0.4109573 0.1059878
vt 0.4177276 0.1110566
vt 0.4281286 0.1026203
vt 0.4280041 0.2423723
vt 0.4178521 0.2344342
vt 0.4105838 0.2392539
vt 0.4207284 0.2480748
vt 0.2609049 0.2480748
vt 0.2710285 0.2393996
vt 0.2636884 0.2344513
vt 0.2534463 0.2428704
vt 0.3171278 0.07494001
vt 0.3158899 0.07781246
vt 0.3205836 0.08264188
vt 0.3234901 0.08148619
vt 0.3204877 0.08937579
vt 0.3233601 0.09061384
vt 0.3156582 0.09406956
vt 0.316814 0.09697616
vt 0.3089244 0.09397369
vt 0.3076863 0.09684615
vt 0.3042305 0.08914427
vt 0.301324 0.09029999
vt 0.3043265 0.08241031
vt 0.301454 0.08117233
vt 0.3091559 0.07771662
vt 0.3080001 0.07481
vt 0.3124071 0.08589309
vt 0.3426047 0.07494001
vt 0.3413667 0.07781246
vt 0.3460605 0.08264188
vt 0.348967 0.08148619
vt 0.3459646 0.08937579
vt 0.348837 0.09061384
vt 0.3411351 0.09406956
vt 0.3422908 0.09697616
vt 0.3344012 0.09397369
vt 0.3331631 0.09684615
vt 0.3297074 0.08914427
vt 0.3268009 0.09029999
vt 0.3298033 0.08241031
vt 0.3269309 0.08117233
vt 0.3346328 0.07771662
vt 0.333477 0.07481
vt 0.3378839 0.08589309
vt 0.2670911 0.07494001
vt 0.2658532 0.07781246
vt 0.2705469 0.08264188
vt 0.2734534 0.08148619
vt 0.270451 0.08937579
vt 0.2733234 0.09061384
vt 0.2656215 0.09406956
vt 0.2667773 0.09697616
vt 0.2588877 0.09397369
vt 0.2576496 0.09684615
vt 0.2541938 0.08914427
vt 0.2512873 0.09029999
vt 0.2542898 0.08241031
vt 0.2514173 0.08117233
vt 0.2591192 0.07771662
vt 0.2579634 0.07481
vt 0.2623703 0.08589309
vt 0.2921691 0.07494001
vt 0.2909311 0.07781246
vt 0.2956249 0.08264188
vt 0.2985314 0.08148619
vt 0.295529 0.08937579
vt 0.2984014 0.09061384
vt 0.2906995 0.09406956
vt 0.2918552 0.09697616
vt 0.2839656 0.09397369
vt 0.2827275 0.09684615
vt 0.2792718 0.08914427
vt 0.2763653 0.09029999
vt 0.2793677 0.08241031
vt 0.2764952 0.08117233
vt 0.2841972 0.07771662
vt 0.2830414 0.07481
vt 0.2874483 0.08589309
vt 0.3411067 0.06638466
vt 0.3411067 0.03812743
vt 0.2603334 0.0381281
vt 0.2603334 0.06638533
vt 0.4218799 0.06638399
vt 0.4218799 0.03812677
vt 0.3411067 0.009870205
vt 0.2603334 0.009870883
vt 0.4218799 0.009869536
vt 0.3409459 0.005675165
vt 0.3409391 0.002189564
vt 0.2513558 0.002190309
vt 0.2548642 0.005675884
vt 0.4270276 0.00567445
vt 0.4305225 0.002188815
vt 0.4305225 0.03802141
vt 0.4270276 0.03803812
vt 0.4270276 0.0704018
vt 0.4305225 0.07385401
vt 0.4305225 0.002188815
vt 0.4270276 0.00567445
vt 0.3409391 0.07385474
vt 0.3409459 0.07040252
vt 0.2548642 0.07040323
vt 0.2513558 0.0738555
vt 0.4305225 0.07385401
vt 0.4270276 0.0704018
vt 0.2513558 0.0738555
vt 0.2548642 0.07040323
vt 0.2548642 0.03803954
vt 0.2513558 0.0380229
vt 0.2513558 0.002190309
vt 0.2548642 0.005675884
vt 0.3409458 0.00797941
vt 0.3409459 0.005675165
vt 0.2548642 0.005675884
vt 0.2578649 0.007980105
vt 0.4240268 0.007978717
vt 0.4270276 0.00567445
vt 0.2578649 0.03803951
vt 0.2548642 0.03803954
vt 0.2548642 0.07040323
vt 0.2578649 0.06809895
vt 0.3409458 0.06809826
vt 0.3409459 0.07040252
vt 0.4240268 0.06809756
vt 0.4270276 0.0704018
vt 0.4240268 0.03803813
vt 0.4270276 0.03803812
vt 0.2603334 0.009870883
vt 0.3411067 0.009870205
vt 0.3409458 0.00797941
vt 0.2578649 0.007980105
vt 0.4240268 0.007978717
vt 0.4218799 0.009869536
vt 0.4240268 0.03803813
vt 0.4218799 0.03812677
vt 0.4218799 0.06638399
vt 0.4240268 0.06809756
vt 0.4240268 0.007978717
vt 0.4218799 0.009869536
vt 0.2578649 0.06809895
vt 0.3409458 0.06809826
vt 0.3411067 0.06638466
vt 0.2603334 0.06638533
vt 0.4218799 0.06638399
vt 0.4240268 0.06809756
vt 0.2578649 0.06809895
vt 0.2603334 0.06638533
vt 0.2603334 0.0381281
vt 0.2578649 0.03803951
vt 0.2578649 0.007980105
vt 0.2603334 0.009870883
vn 0 1 0
vn 0 1 0
vn 0 1 0
vn 0 1 0
vn 0 0.5589148 0.8292251
vn 0 0.5589148 0.8292251
vn 0 0.5589148 0.8292251
vn 0 0.5589148 0.8292251
vn 0.8292251 0.5589148 0
vn 0.8292251 0.5589148 0
vn 0.8292251 0.5589148 0
vn 0.8292251 0.5589148 0
vn 0 0.5589148 -0.8292251
vn 0 0.5589148 -0.8292251
vn 0 0.5589148 -0.8292251
vn 0 0.5589148 -0.8292251
vn -0.8292251 0.5589148 0
vn -0.8292251 0.5589148 0
vn -0.8292251 0.5589148 0
vn -0.8292251 0.5589148 0
vn 0 0.5209588 0.8535818
vn 0 0.5209588 0.8535817
vn 0 0.5209588 0.8535818
vn 0 0.5209588 0.8535818
vn 0.8535851 0.5209533 0
vn 0.8535851 0.5209533 0
vn 0.8535851 0.5209532 0
vn 0.8535851 0.5209534 0
vn 0 0.5209576 -0.8535826
vn 0 0.5209576 -0.8535826
vn 0 0.5209576 -0.8535826
vn 0 0.5209576 -0.8535826
vn -0.8535849 0.5209538 0
vn -0.8535849 0.5209538 0
vn -0.8535849 0.5209538 0
vn -0.8535849 0.5209538 0
vn 0 1 0
vn 0 1 0
vn 0 1 0
vn 0 1 0
vn 0 1 1.038188E-08
vn 0 1 0
vn 0 1 0
vn 0 1 0
vn 0 1 0
vn 0 1 -1.038187E-08
vn 0 1 0
vn 0 1 0
vn -0.5352938 0.6533978 0.5352867
vn -0.5352937 0.6533978 0.5352867
vn -0.5352938 0.6533977 0.5352867
vn -0.5352938 0.6533977 0.5352867
vn 0.5352925 0.6533967 0.5352893
vn 0.5352925 0.6533967 0.5352892
vn 0.5352925 0.6533967 0.5352893
vn 0.5352925 0.6533967 0.5352893
vn 0.5352929 0.6533961 -0.5352897
vn 0.535293 0.653396 -0.5352896
vn 0.535293 0.6533961 -0.5352897
vn 0.535293 0.653396 -0.5352896
vn -0.5352941 0.6533972 -0.535287
vn -0.5352942 0.6533972 -0.535287
vn -0.5352942 0.6533973 -0.535287
vn -0.5352942 0.6533973 -0.535287
vn 0.6155438 0.4921566 -0.6155385
vn 0.4195348 0.8049729 -0.4195343
vn 2.979509E-07 0.8049726 -0.593312
vn 0 0.4921477 -0.8705117
vn -0.4195386 0.8049699 -0.4195365
vn -0.6155437 0.4921376 -0.615554
vn -0.593317 0.8049689 -1.241483E-08
vn -0.8705222 0.4921291 0
vn -0.4195386 0.8049699 0.4195366
vn -0.6155437 0.4921375 0.615554
vn 2.358779E-07 0.8049726 0.593312
vn -5.802915E-08 0.4921475 0.8705117
vn 0.4195348 0.8049729 0.4195344
vn 0.6155438 0.4921565 0.6155385
vn 0.5933089 0.8049749 -4.166588E-08
vn 0.8705041 0.4921612 -1.160582E-08
vn 0 1 -1.557454E-08
vn 0.6155438 0.4921566 -0.6155385
vn 0.4195348 0.8049729 -0.4195343
vn 2.979509E-07 0.8049726 -0.593312
vn 0 0.4921477 -0.8705117
vn -0.4195386 0.8049699 -0.4195365
vn -0.6155437 0.4921376 -0.615554
vn -0.593317 0.8049689 -1.241483E-08
vn -0.8705222 0.4921291 0
vn -0.4195386 0.8049699 0.4195366
vn -0.6155437 0.4921375 0.615554
vn 2.358779E-07 0.8049726 0.593312
vn -5.802915E-08 0.4921475 0.8705117
vn 0.4195348 0.8049729 0.4195344
vn 0.6155438 0.4921565 0.6155385
vn 0.5933089 0.8049749 -4.166588E-08
vn 0.8705041 0.4921612 -1.160582E-08
vn 0 1 -1.557454E-08
vn 0.6155438 0.4921566 -0.6155385
vn 0.4195348 0.8049729 -0.4195343
vn 2.979509E-07 0.8049726 -0.593312
vn 0 0.4921477 -0.8705117
vn -0.4195386 0.8049699 -0.4195365
vn -0.6155437 0.4921376 -0.615554
vn -0.593317 0.8049689 -1.241483E-08
vn -0.8705222 0.4921291 0
vn -0.4195386 0.8049699 0.4195366
vn -0.6155437 0.4921375 0.615554
vn 2.358779E-07 0.8049726 0.593312
vn -5.802915E-08 0.4921475 0.8705117
vn 0.4195348 0.8049729 0.4195344
vn 0.6155438 0.4921565 0.6155385
vn 0.5933089 0.8049749 -4.166588E-08
vn 0.8705041 0.4921612 -1.160582E-08
vn 0 1 -1.557454E-08
vn 0.6155438 0.4921566 -0.6155385
vn 0.4195348 0.8049729 -0.4195343
vn 2.979509E-07 0.8049726 -0.593312
vn 0 0.4921477 -0.8705117
vn -0.4195386 0.8049699 -0.4195365
vn -0.6155437 0.4921376 -0.615554
vn -0.593317 0.8049689 -1.241483E-08
vn -0.8705222 0.4921291 0
vn -0.4195386 0.8049699 0.4195366
vn -0.6155437 0.4921375 0.615554
vn 2.358779E-07 0.8049726 0.593312
vn -5.802915E-08 0.4921475 0.8705117
vn 0.4195348 0.8049729 0.4195344
vn 0.6155438 0.4921565 0.6155385
vn 0.5933089 0.8049749 -4.166588E-08
vn 0.8705041 0.4921612 -1.160582E-08
vn 0 1 -1.557454E-08
vn 0 1 1.196157E-08
vn 0 1 0
vn -1.67907E-08 1 -1.102682E-08
vn 0 1 0
vn 1.679135E-08 1 0
vn 1.679135E-08 1 0
vn 0 1 -2.29849E-08
vn -1.67907E-08 1 -4.596613E-08
vn 0 1 0
vn 0 0.7512034 0.6600709
vn 0 0.7512034 0.6600709
vn 0 0.7512035 0.6600707
vn 0 0.751203 0.6600713
vn 0 0.7512032 0.660071
vn 0 0.7512031 0.6600712
vn 0.7243516 0.6894307 0
vn 0.7243516 0.6894307 0
vn 0.7243502 0.6894321 0
vn 0.7243503 0.6894321 0
vn 0.7243502 0.6894321 0
vn 0.7243502 0.6894323 0
vn 0 0.7512035 -0.6600708
vn 0 0.7512035 -0.6600708
vn 0 0.7512034 -0.6600708
vn 0 0.7512037 -0.6600705
vn 0 0.7512035 -0.6600707
vn 0 0.7512037 -0.6600704
vn -0.7243508 0.6894317 0
vn -0.7243508 0.6894317 0
vn -0.7243522 0.6894302 0
vn -0.7243522 0.6894302 0
vn -0.7243508 0.6894317 0
vn -0.7243508 0.6894317 0
vn 0 1 -3.291096E-07
vn 0 1 -3.291124E-07
vn 0 1 0
vn 0 1 0
vn 0 1 -5.901491E-07
vn 0 1 0
vn 0 1 0
vn 0 1 0
vn 0 1 0
vn 0 1 0
vn 0 1 3.255975E-07
vn 0 1 3.256011E-07
vn 0 1 0
vn 0 1 0
vn 0 1 0
vn 0 1 0
vn 0 0.6128411 -0.7902061
vn 0 0.5958109 -0.8031249
vn 0 0.5958108 -0.8031249
vn 0 0.6128411 -0.7902061
vn 0 0.6128411 -0.7902061
vn 0 0.6128411 -0.7902061
vn -0.8157178 0.5784499 0
vn -0.8157178 0.5784499 0
vn -0.8105347 0.5856907 0
vn -0.8105347 0.5856907 0
vn -0.8105347 0.5856907 0
vn -0.8105347 0.5856906 0
vn 0 0.5692818 0.8221425
vn 0 0.5522166 0.8337007
vn 0 0.5522166 0.8337006
vn 0 0.5692818 0.8221425
vn 0 0.5692818 0.8221425
vn 0 0.5692818 0.8221424
vn 0.7676654 0.6408508 0
vn 0.7676655 0.6408507 0
vn 0.7735566 0.6337273 0
vn 0.7735566 0.6337273 0
vn 0.7676654 0.6408508 0
vn 0.7676655 0.6408508 0
g parts(Clone) 0_0
f 3/3/3 2/2/2 1/1/1
f 4/4/4 3/3/3 1/1/1
f 7/7/7 6/6/6 5/5/5
f 8/8/8 7/7/7 5/5/5
f 11/11/11 10/10/10 9/9/9
f 12/12/12 11/11/11 9/9/9
f 15/15/15 14/14/14 13/13/13
f 16/16/16 15/15/15 13/13/13
f 19/19/19 18/18/18 17/17/17
f 20/20/20 19/19/19 17/17/17
f 23/23/23 22/22/22 21/21/21
f 24/24/24 23/23/23 21/21/21
f 27/27/27 26/26/26 25/25/25
f 28/28/28 27/27/27 25/25/25
f 31/31/31 30/30/30 29/29/29
f 32/32/32 31/31/31 29/29/29
f 35/35/35 34/34/34 33/33/33
f 36/36/36 35/35/35 33/33/33
f 39/39/39 38/38/38 37/37/37
f 40/40/40 39/39/39 37/37/37
f 40/40/40 37/37/37 41/41/41
f 41/41/41 37/37/37 42/42/42
f 43/43/43 40/40/40 41/41/41
f 44/44/44 40/40/40 43/43/43
f 39/39/39 40/40/40 44/44/44
f 45/45/45 39/39/39 44/44/44
f 46/46/46 39/39/39 45/45/45
f 38/38/38 39/39/39 46/46/46
f 47/47/47 38/38/38 46/46/46
f 48/48/48 38/38/38 47/47/47
f 37/37/37 38/38/38 48/48/48
f 42/42/42 37/37/37 48/48/48
f 51/51/51 50/50/50 49/49/49
f 52/52/52 51/51/51 49/49/49
f 55/55/55 54/54/54 53/53/53
f 56/56/56 55/55/55 53/53/53
f 59/59/59 58/58/58 57/57/57
f 60/60/60 59/59/59 57/57/57
f 63/63/63 62/62/62 61/61/61
f 64/64/64 63/63/63 61/61/61
f 67/67/67 66/66/66 65/65/65
f 68/68/68 67/67/67 65/65/65
f 69/69/69 67/67/67 68/68/68
f 70/70/70 69/69/69 68/68/68
f 71/71/71 69/69/69 70/70/70
f 72/72/72 71/71/71 70/70/70
f 73/73/73 71/71/71 72/72/72
f 74/74/74 73/73/73 72/72/72
f 75/75/75 73/73/73 74/74/74
f 76/76/76 75/75/75 74/74/74
f 77/77/77 75/75/75 76/76/76
f 78/78/78 77/77/77 76/76/76
f 79/79/79 77/77/77 78/78/78
f 80/80/80 79/79/79 78/78/78
f 66/66/66 79/79/79 80/80/80
f 65/65/65 66/66/66 80/80/80
f 67/67/67 81/81/81 66/66/66
f 69/69/69 81/81/81 67/67/67
f 71/71/71 81/81/81 69/69/69
f 73/73/73 81/81/81 71/71/71
f 75/75/75 81/81/81 73/73/73
f 77/77/77 81/81/81 75/75/75
f 79/79/79 81/81/81 77/77/77
f 66/66/66 81/81/81 79/79/79
f 84/84/84 83/83/83 82/82/82
f 85/85/85 84/84/84 82/82/82
f 86/86/86 84/84/84 85/85/85
f 87/87/87 86/86/86 85/85/85
f 88/88/88 86/86/86 87/87/87
f 89/89/89 88/88/88 87/87/87
f 90/90/90 88/88/88 89/89/89
f 91/91/91 90/90/90 89/89/89
f 92/92/92 90/90/90 91/91/91
f 93/93/93 92/92/92 91/91/91
f 94/94/94 92/92/92 93/93/93
f 95/95/95 94/94/94 93/93/93
f 96/96/96 94/94/94 95/95/95
f 97/97/97 96/96/96 95/95/95
f 83/83/83 96/96/96 97/97/97
f 82/82/82 83/83/83 97/97/97
f 84/84/84 98/98/98 83/83/83
f 86/86/86 98/98/98 84/84/84
f 88/88/88 98/98/98 86/86/86
f 90/90/90 98/98/98 88/88/88
f 92/92/92 98/98/98 90/90/90
f 94/94/94 98/98/98 92/92/92
f 96/96/96 98/98/98 94/94/94
f 83/83/83 98/98/98 96/96/96
f 101/101/101 100/100/100 99/99/99
f 102/102/102 101/101/101 99/99/99
f 103/103/103 101/101/101 102/102/102
f 104/104/104 103/103/103 102/102/102
f 105/105/105 103/103/103 104/104/104
f 106/106/106 105/105/105 104/104/104
f 107/107/107 105/105/105 106/106/106
f 108/108/108 107/107/107 106/106/106
f 109/109/109 107/107/107 108/108/108
f 110/110/110 109/109/109 108/108/108
f 111/111/111 109/109/109 110/110/110
f 112/112/112 111/111/111 110/110/110
f 113/113/113 111/111/111 112/112/112
f 114/114/114 113/113/113 112/112/112
f 100/100/100 113/113/113 114/114/114
f 99/99/99 100/100/100 114/114/114
f 101/101/101 115/115/115 100/100/100
f 103/103/103 115/115/115 101/101/101
f 105/105/105 115/115/115 103/103/103
f 107/107/107 115/115/115 105/105/105
f 109/109/109 115/115/115 107/107/107
f 111/111/111 115/115/115 109/109/109
f 113/113/113 115/115/115 111/111/111
f 100/100/100 115/115/115 113/113/113
f 118/118/118 117/117/117 116/116/116
f 119/119/119 118/118/118 116/116/116
f 120/120/120 118/118/118 119/119/119
f 121/121/121 120/120/120 119/119/119
f 122/122/122 120/120/120 121/121/121
f 123/123/123 122/122/122 121/121/121
f 124/124/124 122/122/122 123/123/123
f 125/125/125 124/124/124 123/123/123
f 126/126/126 124/124/124 125/125/125
f 127/127/127 126/126/126 125/125/125
f 128/128/128 126/126/126 127/127/127
f 129/129/129 128/128/128 127/127/127
f 130/130/130 128/128/128 129/129/129
f 131/131/131 130/130/130 129/129/129
f 117/117/117 130/130/130 131/131/131
f 116/116/116 117/117/117 131/131/131
f 118/118/118 132/132/132 117/117/117
f 120/120/120 132/132/132 118/118/118
f 122/122/122 132/132/132 120/120/120
f 124/124/124 132/132/132 122/122/122
f 126/126/126 132/132/132 124/124/124
f 128/128/128 132/132/132 126/126/126
f 130/130/130 132/132/132 128/128/128
f 117/117/117 132/132/132 130/130/130
f 135/135/135 134/134/134 133/133/133
f 136/136/136 135/135/135 133/133/133
f 133/133/133 134/134/134 137/137/137
f 134/134/134 138/138/138 137/137/137
f 139/139/139 134/134/134 135/135/135
f 140/140/140 139/139/139 135/135/135
f 141/141/141 138/138/138 134/134/134
f 139/139/139 141/141/141 134/134/134
f 144/144/144 143/143/143 142/142/142
f 145/145/145 144/144/144 142/142/142
f 142/142/142 143/143/143 146/146/146
f 143/143/143 147/147/147 146/146/146
f 150/150/150 149/149/149 148/148/148
f 151/151/151 150/150/150 148/148/148
f 148/148/148 149/149/149 152/152/152
f 149/149/149 153/153/153 152/152/152
f 156/156/156 155/155/155 154/154/154
f 157/157/157 156/156/156 154/154/154
f 154/154/154 155/155/155 158/158/158
f 155/155/155 159/159/159 158/158/158
f 162/162/162 161/161/161 160/160/160
f 163/163/163 162/162/162 160/160/160
f 163/163/163 164/164/164 162/162/162
f 164/164/164 165/165/165 162/162/162
f 168/168/168 167/167/167 166/166/166
f 169/169/169 168/168/168 166/166/166
f 166/166/166 167/167/167 170/170/170
f 167/167/167 171/171/171 170/170/170
f 168/168/168 169/169/169 172/172/172
f 173/173/173 168/168/168 172/172/172
f 173/173/173 172/172/172 174/174/174
f 172/172/172 175/175/175 174/174/174
f 175/175/175 176/176/176 174/174/174
f 176/176/176 177/177/177 174/174/174
f 176/176/176 178/178/178 177/177/177
f 178/178/178 179/179/179 177/177/177
f 179/179/179 178/178/178 180/180/180
f 180/180/180 170/170/170 171/171/171
f 181/181/181 179/179/179 180/180/180
f 181/181/181 180/180/180 171/171/171
f 184/184/184 183/183/183 182/182/182
f 185/185/185 184/184/184 182/182/182
f 184/184/184 186/186/186 183/183/183
f 186/186/186 187/187/187 183/183/183
f 190/190/190 189/189/189 188/188/188
f 191/191/191 190/190/190 188/188/188
f 188/188/188 189/189/189 192/192/192
f 189/189/189 193/193/193 192/192/192
f 196/196/196 195/195/195 194/194/194
f 197/197/197 196/196/196 194/194/194
f 196/196/196 198/198/198 195/195/195
f 198/198/198 199/199/199 195/195/195
f 202/202/202 201/201/201 200/200/200
f 203/203/203 202/202/202 200/200/200
f 203/203/203 204/204/204 202/202/202
f 204/204/204 205/205/205 202/202/202
