g Screen_Frame(Clone) 0
v -0.08062717 0.01499979 0.06562861
v -0.07755508 0.01760178 0.0627097
v -0.06715834 0.01760178 0.07313525
v -0.07038017 0.01499979 0.07649318
v -0.07755508 0.01760178 0.0627097
v -0.07423709 0.01679078 0.05982712
v -0.06466283 0.01679078 0.06979743
v -0.06715834 0.01760178 0.07313525
v -0.07785907 0.01760178 0.004996346
v -0.07455142 0.01679078 0.00499634
v -0.07755508 0.01760178 -0.052717
v -0.07423709 0.01679078 -0.04983445
v -0.06715834 0.01760178 -0.06314255
v -0.06466283 0.01679078 -0.05980473
v -0.009431793 0.01760178 -0.06343094
v -0.009431806 0.01679078 -0.06012329
v 0.04829476 0.01760178 -0.06314255
v 0.04579922 0.01679078 -0.05980473
v 0.05869149 0.01760178 -0.052717
v 0.05537349 0.01679078 -0.04983445
v 0.05568782 0.01679078 0.00499634
v 0.05899548 0.01760178 0.004996346
v 0.05869149 0.01760178 0.0627097
v 0.05537349 0.01679078 0.05982712
v 0.04829476 0.01760178 0.07313525
v 0.04579924 0.01679078 0.06979743
v -0.009431793 0.01760178 0.07342365
v -0.009431799 0.01679078 0.070116
v 0.05151657 0.01499979 0.07649318
v 0.04829476 0.01760178 0.07313525
v 0.05869149 0.01760178 0.0627097
v 0.06218451 0.01499979 0.06562861
v 0.06124259 0.01392229 -0.0523659
v 0.05869149 0.01760178 -0.052717
v 0.04829476 0.01760178 -0.06314255
v 0.0468252 0.01392229 -0.06681639
v -0.07038017 0.01499979 -0.06681639
v -0.06715834 0.01760178 -0.06314255
v -0.07755508 0.01760178 -0.052717
v -0.08062717 0.01499979 -0.0556359
v -0.07423709 0.01679078 0.05982712
v -0.07109583 0.01003838 0.05865517
v -0.06348585 0.01003838 0.0666604
v -0.06466283 0.01679078 0.06979743
v -0.07455142 0.01679078 0.00499634
v -0.07109583 0.01003838 0.004996341
v -0.07423709 0.01679078 -0.04983445
v -0.07109583 0.01003838 -0.04866248
v -0.06466283 0.01679078 -0.05980473
v -0.06348585 0.01003838 -0.05666769
v -0.009431806 0.01679078 -0.06012329
v -0.009431809 0.01003838 -0.05666769
v 0.04579922 0.01679078 -0.05980473
v 0.04462222 0.01003838 -0.05666769
v 0.05537349 0.01679078 -0.04983445
v 0.05223222 0.01003838 -0.04866248
v 0.05223222 0.01003838 0.004996341
v 0.05568782 0.01679078 0.00499634
v 0.05537349 0.01679078 0.05982712
v 0.05223222 0.01003838 0.05865517
v 0.04579924 0.01679078 0.06979743
v 0.04462222 0.01003838 0.0666604
v -0.009431799 0.01679078 0.070116
v -0.009431809 0.01003838 0.0666604
v -0.009431793 0.01760178 0.07342365
v 0.04829476 0.01760178 0.07313525
v 0.05151657 0.01499979 0.07649318
v -0.009431804 0.01499979 0.07649318
v -0.06715834 0.01760178 0.07313525
v -0.07038017 0.01499979 0.07649318
v 0.05869149 0.01760178 0.0627097
v 0.05899548 0.01760178 0.004996346
v 0.06218451 0.01499979 0.004996352
v 0.06218451 0.01499979 0.06562861
v 0.06124259 0.01392229 -0.0523659
v 0.05869149 0.01760178 -0.052717
v -0.009431793 0.01760178 -0.06343094
v -0.06715834 0.01760178 -0.06314255
v -0.07038017 0.01499979 -0.06681639
v -0.009431804 0.01499979 -0.06681639
v 0.04829476 0.01760178 -0.06314255
v 0.0468252 0.01392229 -0.06681639
v -0.07785907 0.01760178 0.004996346
v -0.07755508 0.01760178 0.0627097
v -0.08062717 0.01499979 0.06562861
v -0.08062717 0.01499979 0.004996352
v -0.07755508 0.01760178 -0.052717
v -0.08062717 0.01499979 -0.0556359
v 0.05223222 0.01003838 0.004996341
v 0.05223222 0.01003838 0.05865517
v -0.009431802 0.007082053 0.004996345
v 0.04462222 0.01003838 0.0666604
v -0.009431809 0.01003838 0.0666604
v -0.06348585 0.01003838 0.0666604
v -0.07109583 0.01003838 0.05865517
v -0.07109583 0.01003838 0.004996341
v -0.07109583 0.01003838 -0.04866248
v 0.05223222 0.01003838 -0.04866248
v 0.04462222 0.01003838 -0.05666769
v -0.009431809 0.01003838 -0.05666769
v -0.06348585 0.01003838 -0.05666769
vt 0.7473599 0.728955
vt 0.7426288 0.7246538
vt 0.7246538 0.7426287
vt 0.7302269 0.7473599
vt 0.7426288 0.7246538
vt 0.7346622 0.7110284
vt 0.712262 0.7340748
vt 0.7246538 0.7426287
vt 0.7426288 0.625
vt 0.7340748 0.625
vt 0.7426288 0.5253462
vt 0.7356334 0.537738
vt 0.7246538 0.5073712
vt 0.7163711 0.5159252
vt 0.625 0.5073712
vt 0.6250001 0.5159252
vt 0.5253462 0.5073712
vt 0.5377381 0.5159252
vt 0.5073713 0.5253462
vt 0.5159253 0.537738
vt 0.5159253 0.625
vt 0.5073713 0.625
vt 0.5073713 0.7246538
vt 0.5159253 0.712262
vt 0.5253462 0.7426287
vt 0.5331967 0.7340748
vt 0.6250001 0.7426287
vt 0.6250001 0.7340748
vt 0.5188306 0.7473599
vt 0.5253462 0.7426287
vt 0.5073713 0.7246538
vt 0.5026402 0.7307206
vt 0.5031165 0.5181165
vt 0.5073713 0.5253462
vt 0.5253462 0.5073712
vt 0.5197732 0.5026401
vt 0.7309512 0.5026627
vt 0.7246538 0.5073712
vt 0.7426288 0.5253462
vt 0.7473599 0.5192289
vt 0.7346622 0.7110284
vt 0.7216896 0.7045565
vt 0.7058809 0.7216896
vt 0.712262 0.7340748
vt 0.7340748 0.625
vt 0.7216896 0.625
vt 0.7356334 0.537738
vt 0.7216896 0.5469179
vt 0.7163711 0.5159252
vt 0.7045565 0.5283104
vt 0.6250001 0.5159252
vt 0.6250001 0.5283104
vt 0.5377381 0.5159252
vt 0.5454435 0.5283104
vt 0.5159253 0.537738
vt 0.5283105 0.5454435
vt 0.5283105 0.625
vt 0.5159253 0.625
vt 0.5159253 0.712262
vt 0.5283105 0.7029044
vt 0.5331967 0.7340748
vt 0.5445301 0.7216896
vt 0.6250001 0.7340748
vt 0.625 0.7216896
vt 0.6250001 0.7426287
vt 0.5253462 0.7426287
vt 0.5188306 0.7473599
vt 0.6250001 0.7473599
vt 0.7246538 0.7426287
vt 0.7302269 0.7473599
vt 0.5073713 0.7246538
vt 0.5073713 0.625
vt 0.5026402 0.6250001
vt 0.5026402 0.7307206
vt 0.5031165 0.5181165
vt 0.5073713 0.5253462
vt 0.625 0.5073712
vt 0.7246538 0.5073712
vt 0.7309512 0.5026627
vt 0.625 0.5026401
vt 0.5253462 0.5073712
vt 0.5197732 0.5026401
vt 0.7426288 0.625
vt 0.7426288 0.7246538
vt 0.7473599 0.728955
vt 0.7473599 0.625
vt 0.7426288 0.5253462
vt 0.7473599 0.5192289
vt 0.5283105 0.625
vt 0.5283105 0.7029044
vt 0.625 0.625
vt 0.5445301 0.7216896
vt 0.625 0.7216896
vt 0.7058809 0.7216896
vt 0.7216896 0.7045565
vt 0.7216896 0.625
vt 0.7216896 0.5469179
vt 0.5283105 0.5454435
vt 0.5454435 0.5283104
vt 0.6250001 0.5283104
vt 0.7045565 0.5283104
vn -0.3627442 0.8629614 0.3517306
vn -0.3627442 0.8629614 0.3517306
vn -0.3627441 0.8629614 0.3517306
vn -0.3627441 0.8629614 0.3517306
vn 0.2011134 0.9784108 -0.04759815
vn 0.2183994 0.9755239 -0.02558671
vn 0.02802207 0.9760115 -0.2159082
vn 0.04449918 0.9781703 -0.2029843
vn 0.2372512 0.9714484 0
vn 0.2372512 0.9714484 0
vn 0.2011138 0.9784107 0.04759806
vn 0.2183997 0.9755239 0.02558687
vn 0.04449913 0.9781702 0.2029847
vn 0.028022 0.9760114 0.2159085
vn 0 0.971591 0.236666
vn 0 0.971591 0.236666
vn -0.04449933 0.9781703 0.2029842
vn -0.02802187 0.9760115 0.2159084
vn -0.2011134 0.9784108 0.04759794
vn -0.2183993 0.975524 0.02558681
vn -0.2372507 0.9714485 0
vn -0.2372507 0.9714485 0
vn -0.2011129 0.978411 -0.04759806
vn -0.2183989 0.9755241 -0.02558666
vn -0.04449925 0.9781703 -0.2029843
vn -0.02802202 0.9760115 -0.2159083
vn 0 0.971591 -0.2366659
vn 0 0.971591 -0.2366659
vn 0.350333 0.870126 0.3466231
vn 0.350333 0.870126 0.3466231
vn 0.350333 0.870126 0.3466231
vn 0.3503331 0.870126 0.3466231
vn 0.6520679 0.3895243 -0.6504446
vn 0.6520679 0.3895243 -0.6504446
vn 0.6520679 0.3895243 -0.6504446
vn 0.6520679 0.3895243 -0.6504447
vn -0.3587776 0.8681983 -0.3427979
vn -0.3587776 0.8681983 -0.3427979
vn -0.3587775 0.8681983 -0.3427979
vn -0.3587776 0.8681983 -0.342798
vn 0.8851074 0.449451 -0.1207423
vn 0.8846344 0.4496203 -0.1235464
vn 0.130102 0.45137 -0.8828015
vn 0.1248544 0.451001 -0.8837475
vn 0.8984395 0.4390973 0
vn 0.8984395 0.4390974 0
vn 0.8851073 0.4494512 0.1207424
vn 0.8846343 0.4496204 0.1235464
vn 0.1248541 0.4510003 0.8837479
vn 0.1301016 0.4513694 0.8828019
vn 0 0.4388728 0.8985492
vn 0 0.4388728 0.8985492
vn -0.1248544 0.4510005 0.8837477
vn -0.1301013 0.4513695 0.8828019
vn -0.8851066 0.4494527 0.1207425
vn -0.8846334 0.4496219 0.1235467
vn -0.8984387 0.4390989 0
vn -0.8984387 0.4390989 0
vn -0.8851066 0.4494525 -0.1207423
vn -0.8846335 0.4496217 -0.1235465
vn -0.1248549 0.4510012 -0.8837472
vn -0.1301015 0.4513703 -0.8828015
vn 0 0.4388737 -0.8985488
vn 0 0.4388737 -0.8985488
vn 0 0.7775719 0.628794
vn 0.001528035 0.7775709 0.6287934
vn 0.001528035 0.7775709 0.6287934
vn 0 0.7775719 0.628794
vn -0.001528036 0.777571 0.6287932
vn -0.001528036 0.777571 0.6287932
vn 0.6140144 0.7892932 0.001577219
vn 0.6779878 0.7350463 -0.00629296
vn 0.6779708 0.7350619 -0.006290793
vn 0.6140144 0.7892933 0.001577219
vn 0.7385232 0.6740761 -0.01430759
vn 0.7385232 0.6740762 -0.01430759
vn 0.00373972 0.7760417 -0.6306703
vn -0.001440932 0.8052381 -0.5929499
vn -0.001440932 0.8052381 -0.5929499
vn 0.003758553 0.7759323 -0.630805
vn 0.008737664 0.746132 -0.6657408
vn 0.008737664 0.7461319 -0.6657408
vn -0.6647961 0.7470248 0
vn -0.6647949 0.7470239 0.001707642
vn -0.6647949 0.7470239 0.001707642
vn -0.6647962 0.7470248 0
vn -0.6647953 0.7470236 -0.001707643
vn -0.6647953 0.7470236 -0.001707643
vn -0.04788754 0.9988527 0
vn -0.04080235 0.999134 -0.008157752
vn 0 1 0
vn -0.008384589 0.9991423 -0.0405516
vn 0 0.9988527 -0.0478875
vn 0.008384589 0.9991423 -0.04055155
vn 0.04080236 0.999134 -0.008157693
vn 0.04788754 0.9988527 0
vn 0.04080236 0.999134 0.008157687
vn -0.04080234 0.999134 0.008157729
vn -0.008384584 0.9991423 0.0405516
vn 0 0.9988527 0.04788752
vn 0.008384584 0.9991423 0.04055156
g Screen_Frame(Clone) 0_0
f 3/3/3 2/2/2 1/1/1
f 4/4/4 3/3/3 1/1/1
f 7/7/7 6/6/6 5/5/5
f 8/8/8 7/7/7 5/5/5
f 5/5/5 6/6/6 9/9/9
f 6/6/6 10/10/10 9/9/9
f 9/9/9 10/10/10 11/11/11
f 10/10/10 12/12/12 11/11/11
f 11/11/11 12/12/12 13/13/13
f 12/12/12 14/14/14 13/13/13
f 13/13/13 14/14/14 15/15/15
f 14/14/14 16/16/16 15/15/15
f 15/15/15 16/16/16 17/17/17
f 16/16/16 18/18/18 17/17/17
f 17/17/17 18/18/18 19/19/19
f 18/18/18 20/20/20 19/19/19
f 19/19/19 20/20/20 21/21/21
f 22/22/22 19/19/19 21/21/21
f 22/22/22 21/21/21 23/23/23
f 21/21/21 24/24/24 23/23/23
f 23/23/23 24/24/24 25/25/25
f 24/24/24 26/26/26 25/25/25
f 25/25/25 26/26/26 27/27/27
f 26/26/26 28/28/28 27/27/27
f 27/27/27 28/28/28 8/8/8
f 28/28/28 7/7/7 8/8/8
f 31/31/31 30/30/30 29/29/29
f 32/32/32 31/31/31 29/29/29
f 35/35/35 34/34/34 33/33/33
f 36/36/36 35/35/35 33/33/33
f 39/39/39 38/38/38 37/37/37
f 40/40/40 39/39/39 37/37/37
f 43/43/43 42/42/42 41/41/41
f 44/44/44 43/43/43 41/41/41
f 41/41/41 42/42/42 45/45/45
f 42/42/42 46/46/46 45/45/45
f 45/45/45 46/46/46 47/47/47
f 46/46/46 48/48/48 47/47/47
f 47/47/47 48/48/48 49/49/49
f 48/48/48 50/50/50 49/49/49
f 49/49/49 50/50/50 51/51/51
f 50/50/50 52/52/52 51/51/51
f 51/51/51 52/52/52 53/53/53
f 52/52/52 54/54/54 53/53/53
f 53/53/53 54/54/54 55/55/55
f 54/54/54 56/56/56 55/55/55
f 55/55/55 56/56/56 57/57/57
f 58/58/58 55/55/55 57/57/57
f 58/58/58 57/57/57 59/59/59
f 57/57/57 60/60/60 59/59/59
f 59/59/59 60/60/60 61/61/61
f 60/60/60 62/62/62 61/61/61
f 61/61/61 62/62/62 63/63/63
f 62/62/62 64/64/64 63/63/63
f 63/63/63 64/64/64 44/44/44
f 64/64/64 43/43/43 44/44/44
f 67/67/67 66/66/66 65/65/65
f 68/68/68 67/67/67 65/65/65
f 68/68/68 65/65/65 69/69/69
f 70/70/70 68/68/68 69/69/69
f 73/73/73 72/72/72 71/71/71
f 74/74/74 73/73/73 71/71/71
f 73/73/73 75/75/75 72/72/72
f 75/75/75 76/76/76 72/72/72
f 79/79/79 78/78/78 77/77/77
f 80/80/80 79/79/79 77/77/77
f 80/80/80 77/77/77 81/81/81
f 82/82/82 80/80/80 81/81/81
f 85/85/85 84/84/84 83/83/83
f 86/86/86 85/85/85 83/83/83
f 86/86/86 83/83/83 87/87/87
f 88/88/88 86/86/86 87/87/87
f 91/91/91 90/90/90 89/89/89
f 92/92/92 90/90/90 91/91/91
f 93/93/93 92/92/92 91/91/91
f 94/94/94 93/93/93 91/91/91
f 95/95/95 94/94/94 91/91/91
f 96/96/96 95/95/95 91/91/91
f 96/96/96 91/91/91 97/97/97
f 91/91/91 89/89/89 98/98/98
f 91/91/91 98/98/98 99/99/99
f 91/91/91 99/99/99 100/100/100
f 91/91/91 100/100/100 101/101/101
f 91/91/91 101/101/101 97/97/97
