g Time_DECR_btn
v -0.01244104 -1.430511E-08 0.01031698
v -0.01244104 -1.430511E-08 1.791578E-08
v -0.01164071 0.004966249 1.791578E-08
v -0.01164071 0.004966249 0.009490202
v -0.009492763 0.004966249 0.01163757
v -0.01031976 -1.430511E-08 0.0124377
v -6.988773E-09 -1.430511E-08 0.0124377
v -7.286796E-09 0.004966249 0.01163757
v -0.009182025 0.007446649 8.379036E-09
v -0.009182025 0.007059967 0.009179533
v -6.690749E-09 0.007446649 0.009179533
v -6.690749E-09 0.007768781 8.379036E-09
v 0.01031976 -1.430511E-08 0.0124377
v 0.009492765 0.004966249 0.01163757
v 0.01164071 0.004966249 0.009490202
v 0.01244104 -1.430511E-08 0.01031698
v 0.01244104 -1.430511E-08 1.791578E-08
v 0.01164071 0.004966249 1.791578E-08
v 0.009182028 0.007059967 0.009179533
v 0.009182028 0.007446649 8.379036E-09
v 0.01244104 -1.430511E-08 -0.01031696
v 0.01164071 0.004966249 -0.009490167
v 0.009492765 0.004966249 -0.01163754
v 0.01031976 -1.430511E-08 -0.01243767
v 0.009182028 0.007059967 -0.009179517
v -7.286796E-09 0.004966249 -0.01163754
v -6.690749E-09 0.007446649 -0.009179517
v -0.009492763 0.004966249 -0.01163754
v -0.01031976 -1.430511E-08 -0.01243767
v -6.988773E-09 -1.430511E-08 -0.01243767
v -0.009182025 0.007059967 -0.009179517
v -0.01164071 0.004966249 -0.009490167
v -0.01244104 -1.430511E-08 -0.01031696
vt 0.5874797 0.2550177
vt 0.5725526 0.3254501
vt 0.6102138 0.3254231
vt 0.6102138 0.2729
vt 0.6211411 0.2617081
vt 0.6031609 0.2392523
vt 0.6735821 0.2240493
vt 0.6736105 0.2617081
vt 0.6260599 0.3253505
vt 0.6260599 0.2777237
vt 0.6736829 0.2777237
vt 0.6737841 0.3252547
vt 0.7440333 0.2389649
vt 0.7261534 0.2617081
vt 0.7373481 0.2726256
vt 0.7598034 0.2546437
vt 0.7750053 0.3250592
vt 0.7373481 0.3250862
vt 0.7213315 0.2777237
vt 0.7213315 0.3251588
vt 0.7600833 0.3954983
vt 0.7373481 0.3776166
vt 0.7264206 0.3888086
vt 0.7444004 0.4112645
vt 0.7213315 0.3727936
vt 0.6739473 0.3888086
vt 0.6738746 0.3727936
vt 0.621408 0.3888086
vt 0.6035281 0.4115369
vt 0.6739729 0.4264601
vt 0.6260599 0.3727936
vt 0.6102138 0.3778764
vt 0.5877596 0.3958588
vn -0.964412 0.1866036 0.1873192
vn -0.9872623 0.1591008 0
vn -0.9160024 0.4011728 0
vn -0.9155898 0.3794096 0.1332056
vn -0.1331356 0.3793271 0.9156342
vn -0.1872395 0.1865632 0.9644354
vn 0 0.1590625 0.9872686
vn 0 0.4010863 0.9160403
vn -0.2205704 0.975371 0
vn -0.1992522 0.9594656 0.1993093
vn 0 0.9753582 0.2206273
vn 0 1 0
vn 0.1872392 0.1865632 0.9644354
vn 0.1331355 0.3793272 0.915634
vn 0.9155898 0.3794096 0.1332057
vn 0.9644119 0.1866038 0.1873194
vn 0.9872623 0.1591012 0
vn 0.9160023 0.401173 0
vn 0.199252 0.9594656 0.1993094
vn 0.2205702 0.9753711 0
vn 0.9644118 0.1866041 -0.1873197
vn 0.9155899 0.3794096 -0.133205
vn 0.1331349 0.3793257 -0.9156349
vn 0.1872385 0.1865635 -0.9644355
vn 0.199252 0.9594656 -0.1993098
vn 0 0.4010842 -0.9160412
vn 0 0.9753581 -0.2206277
vn -0.1331351 0.3793255 -0.9156349
vn -0.1872387 0.1865635 -0.9644355
vn 0 0.1590625 -0.9872686
vn -0.1992523 0.9594655 -0.1993098
vn -0.91559 0.3794094 -0.133205
vn -0.9644119 0.1866037 -0.1873196
g Time_DECR_btn_0
f 3/3/3 2/2/2 1/1/1
f 4/4/4 3/3/3 1/1/1
f 5/5/5 4/4/4 1/1/1
f 6/6/6 5/5/5 1/1/1
f 5/5/5 6/6/6 7/7/7
f 8/8/8 5/5/5 7/7/7
f 9/9/9 3/3/3 4/4/4
f 10/10/10 9/9/9 4/4/4
f 5/5/5 8/8/8 10/10/10
f 4/4/4 5/5/5 10/10/10
f 9/9/9 10/10/10 11/11/11
f 8/8/8 11/11/11 10/10/10
f 12/12/12 9/9/9 11/11/11
f 8/8/8 7/7/7 13/13/13
f 14/14/14 8/8/8 13/13/13
f 8/8/8 14/14/14 11/11/11
f 15/15/15 14/14/14 13/13/13
f 16/16/16 15/15/15 13/13/13
f 15/15/15 16/16/16 17/17/17
f 18/18/18 15/15/15 17/17/17
f 15/15/15 18/18/18 19/19/19
f 19/19/19 14/14/14 15/15/15
f 14/14/14 19/19/19 11/11/11
f 12/12/12 11/11/11 19/19/19
f 18/18/18 20/20/20 19/19/19
f 20/20/20 12/12/12 19/19/19
f 18/18/18 17/17/17 21/21/21
f 22/22/22 18/18/18 21/21/21
f 18/18/18 22/22/22 20/20/20
f 23/23/23 22/22/22 21/21/21
f 24/24/24 23/23/23 21/21/21
f 25/25/25 22/22/22 23/23/23
f 22/22/22 25/25/25 20/20/20
f 20/20/20 25/25/25 12/12/12
f 23/23/23 26/26/26 25/25/25
f 26/26/26 27/27/27 25/25/25
f 25/25/25 27/27/27 12/12/12
f 26/26/26 28/28/28 27/27/27
f 28/28/28 26/26/26 29/29/29
f 26/26/26 30/30/30 29/29/29
f 23/23/23 24/24/24 30/30/30
f 26/26/26 23/23/23 30/30/30
f 28/28/28 31/31/31 27/27/27
f 32/32/32 28/28/28 29/29/29
f 31/31/31 28/28/28 32/32/32
f 33/33/33 32/32/32 29/29/29
f 27/27/27 31/31/31 9/9/9
f 12/12/12 27/27/27 9/9/9
f 31/31/31 32/32/32 3/3/3
f 9/9/9 31/31/31 3/3/3
f 32/32/32 33/33/33 2/2/2
f 3/3/3 32/32/32 2/2/2
